<?xml version="1.0" encoding="UTF-8"?>
<svg xmlns="http://www.w3.org/2000/svg" xmlns:xlink="http://www.w3.org/1999/xlink" width="2000" height="2000" viewBox="0 0 2000 2000">

<path fill-rule="evenodd" fill="rgb(95.701599%, 96.875%, 98.046875%)" fill-opacity="1" d="M 1908.238281 1915.15625 L 1889.179688 1915.15625 C 1888.300781 1915.15625 1887.589844 1915.871094 1887.589844 1916.746094 L 1887.589844 1935.800781 C 1887.589844 1936.679688 1888.300781 1937.394531 1889.179688 1937.394531 L 1908.238281 1937.394531 C 1909.109375 1937.394531 1909.828125 1936.679688 1909.828125 1935.800781 L 1909.828125 1916.746094 C 1909.828125 1915.871094 1909.109375 1915.15625 1908.238281 1915.15625 "/>
<path fill-rule="evenodd" fill="rgb(95.701599%, 96.875%, 98.046875%)" fill-opacity="1" d="M 1865.28125 1916.171875 L 1847.089844 1916.171875 C 1846.261719 1916.171875 1845.578125 1916.855469 1845.578125 1917.691406 L 1845.578125 1935.875 C 1845.578125 1936.710938 1846.261719 1937.394531 1847.089844 1937.394531 L 1865.28125 1937.394531 C 1866.109375 1937.394531 1866.800781 1936.710938 1866.800781 1935.875 L 1866.800781 1917.691406 C 1866.800781 1916.855469 1866.109375 1916.171875 1865.28125 1916.171875 "/>
<path fill-rule="evenodd" fill="rgb(95.701599%, 96.875%, 98.046875%)" fill-opacity="1" d="M 1822.320312 1917.1875 L 1805.011719 1917.1875 C 1804.210938 1917.1875 1803.558594 1917.839844 1803.558594 1918.636719 L 1803.558594 1935.949219 C 1803.558594 1936.742188 1804.210938 1937.394531 1805.011719 1937.394531 L 1822.320312 1937.394531 C 1823.121094 1937.394531 1823.769531 1936.742188 1823.769531 1935.949219 L 1823.769531 1918.636719 C 1823.769531 1917.839844 1823.121094 1917.1875 1822.320312 1917.1875 "/>
<path fill-rule="evenodd" fill="rgb(95.701599%, 96.875%, 98.046875%)" fill-opacity="1" d="M 1779.371094 1918.207031 L 1762.929688 1918.207031 C 1762.171875 1918.207031 1761.550781 1918.824219 1761.550781 1919.582031 L 1761.550781 1936.019531 C 1761.550781 1936.777344 1762.171875 1937.394531 1762.929688 1937.394531 L 1779.371094 1937.394531 C 1780.121094 1937.394531 1780.738281 1936.777344 1780.738281 1936.019531 L 1780.738281 1919.582031 C 1780.738281 1918.824219 1780.121094 1918.207031 1779.371094 1918.207031 "/>
<path fill-rule="evenodd" fill="rgb(95.701599%, 96.875%, 98.046875%)" fill-opacity="1" d="M 1736.410156 1919.222656 L 1720.839844 1919.222656 C 1720.128906 1919.222656 1719.539062 1919.808594 1719.539062 1920.523438 L 1719.539062 1936.09375 C 1719.539062 1936.808594 1720.128906 1937.394531 1720.839844 1937.394531 L 1736.410156 1937.394531 C 1737.128906 1937.394531 1737.710938 1936.808594 1737.710938 1936.09375 L 1737.710938 1920.523438 C 1737.710938 1919.808594 1737.128906 1919.222656 1736.410156 1919.222656 "/>
<path fill-rule="evenodd" fill="rgb(95.701599%, 96.875%, 98.046875%)" fill-opacity="1" d="M 1693.460938 1920.238281 L 1678.761719 1920.238281 C 1678.078125 1920.238281 1677.53125 1920.792969 1677.53125 1921.46875 L 1677.53125 1936.167969 C 1677.53125 1936.84375 1678.078125 1937.394531 1678.761719 1937.394531 L 1693.460938 1937.394531 C 1694.128906 1937.394531 1694.679688 1936.84375 1694.679688 1936.167969 L 1694.679688 1921.46875 C 1694.679688 1920.792969 1694.128906 1920.238281 1693.460938 1920.238281 "/>
<path fill-rule="evenodd" fill="rgb(95.701599%, 96.875%, 98.046875%)" fill-opacity="1" d="M 1650.5 1921.257812 L 1636.671875 1921.257812 C 1636.039062 1921.257812 1635.519531 1921.777344 1635.519531 1922.414062 L 1635.519531 1936.238281 C 1635.519531 1936.875 1636.039062 1937.394531 1636.671875 1937.394531 L 1650.5 1937.394531 C 1651.140625 1937.394531 1651.648438 1936.875 1651.648438 1936.238281 L 1651.648438 1922.414062 C 1651.648438 1921.777344 1651.140625 1921.257812 1650.5 1921.257812 "/>
<path fill-rule="evenodd" fill="rgb(95.701599%, 96.875%, 98.046875%)" fill-opacity="1" d="M 1607.539062 1922.273438 L 1594.589844 1922.273438 C 1593.988281 1922.273438 1593.511719 1922.761719 1593.511719 1923.355469 L 1593.511719 1936.3125 C 1593.511719 1936.90625 1593.988281 1937.394531 1594.589844 1937.394531 L 1607.539062 1937.394531 C 1608.140625 1937.394531 1608.628906 1936.90625 1608.628906 1936.3125 L 1608.628906 1923.355469 C 1608.628906 1922.761719 1608.140625 1922.273438 1607.539062 1922.273438 "/>
<path fill-rule="evenodd" fill="rgb(95.701599%, 96.875%, 98.046875%)" fill-opacity="1" d="M 1564.589844 1923.292969 L 1552.5 1923.292969 C 1551.949219 1923.292969 1551.488281 1923.746094 1551.488281 1924.300781 L 1551.488281 1936.386719 C 1551.488281 1936.941406 1551.949219 1937.394531 1552.5 1937.394531 L 1564.589844 1937.394531 C 1565.140625 1937.394531 1565.601562 1936.941406 1565.601562 1936.386719 L 1565.601562 1924.300781 C 1565.601562 1923.746094 1565.140625 1923.292969 1564.589844 1923.292969 "/>
<path fill-rule="evenodd" fill="rgb(78.125%, 86.326599%, 93.359375%)" fill-opacity="1" d="M 999.960938 69.859375 C 1511.558594 69.859375 1930.140625 488.441406 1930.140625 1000.039062 C 1930.140625 1511.636719 1511.558594 1930.21875 999.960938 1930.21875 C 488.363281 1930.21875 69.78125 1511.636719 69.78125 1000.039062 C 69.78125 488.441406 488.363281 69.859375 999.960938 69.859375 "/>
<path fill-rule="evenodd" fill="rgb(51.367188%, 82.421875%, 72.851562%)" fill-opacity="1" d="M 818.253906 785.03125 L 1136.25 785.03125 C 1212.988281 785.03125 1275.78125 847.808594 1275.78125 924.558594 L 1275.78125 1154.941406 C 1275.78125 1231.683594 1212.988281 1294.472656 1136.25 1294.472656 L 818.253906 1294.472656 C 741.511719 1294.472656 678.722656 1231.683594 678.722656 1154.941406 L 678.722656 924.558594 C 678.722656 847.808594 741.511719 785.03125 818.253906 785.03125 "/>
<path fill-rule="nonzero" fill="rgb(66.601562%, 93.75%, 85.546875%)" fill-opacity="1" d="M 1275.78125 958.628906 L 1326.078125 958.628906 C 1418.96875 958.628906 1503.351562 996.570312 1564.480469 1057.695312 C 1625.601562 1118.820312 1663.550781 1203.207031 1663.550781 1296.09375 L 1663.550781 1302.585938 L 1501.300781 1302.585938 L 1501.300781 1296.09375 C 1501.300781 1247.992188 1481.558594 1204.203125 1449.769531 1172.40625 C 1417.96875 1140.609375 1374.179688 1120.871094 1326.078125 1120.871094 L 1275.78125 1120.871094 Z M 678.722656 1120.871094 L 475.917969 1120.871094 L 475.917969 958.628906 L 678.722656 958.628906 L 678.722656 1120.871094 "/>
<path fill-rule="evenodd" fill="rgb(88.28125%, 88.28125%, 87.889099%)" fill-opacity="1" d="M 977.253906 922.929688 C 1041.769531 922.929688 1094.070312 975.230469 1094.070312 1039.75 C 1094.070312 1104.265625 1041.769531 1156.566406 977.253906 1156.566406 C 912.734375 1156.566406 860.4375 1104.265625 860.4375 1039.75 C 860.4375 975.230469 912.734375 922.929688 977.253906 922.929688 "/>
<path fill-rule="evenodd" fill="rgb(91.014099%, 62.304688%, 62.304688%)" fill-opacity="1" d="M 1457.5 1302.585938 L 1707.351562 1302.585938 C 1719.839844 1302.585938 1730.070312 1312.808594 1730.070312 1325.300781 L 1730.070312 1422.644531 C 1730.070312 1435.140625 1719.839844 1445.359375 1707.351562 1445.359375 L 1457.5 1445.359375 C 1445 1445.359375 1434.78125 1435.140625 1434.78125 1422.644531 L 1434.78125 1325.300781 C 1434.78125 1312.808594 1445 1302.585938 1457.5 1302.585938 "/>
<path fill-rule="evenodd" fill="rgb(91.014099%, 62.304688%, 62.304688%)" fill-opacity="1" d="M 428.867188 780.160156 L 253.640625 780.160156 C 249.179688 780.160156 245.53125 783.808594 245.53125 788.269531 L 245.53125 1299.339844 L 428.867188 1299.339844 C 454.742188 1299.339844 475.917969 1278.167969 475.917969 1252.289062 L 475.917969 827.210938 C 475.917969 801.328125 454.742188 780.160156 428.867188 780.160156 "/>
<path fill-rule="evenodd" fill="rgb(91.014099%, 62.304688%, 62.304688%)" fill-opacity="1" d="M 912.355469 385.898438 L 1042.148438 385.898438 L 1042.148438 483.25 L 912.355469 483.25 Z M 1042.148438 616.289062 L 1042.148438 785.03125 L 912.355469 785.03125 L 912.355469 616.289062 L 1042.148438 616.289062 "/>
<path fill-rule="evenodd" fill="rgb(51.367188%, 82.421875%, 72.851562%)" fill-opacity="1" d="M 763.089844 483.25 L 1191.410156 483.25 C 1219.96875 483.25 1243.328125 506.609375 1243.328125 535.171875 L 1243.328125 564.371094 C 1243.328125 592.929688 1219.96875 616.289062 1191.410156 616.289062 L 763.089844 616.289062 C 734.535156 616.289062 711.171875 592.929688 711.171875 564.371094 L 711.171875 535.171875 C 711.171875 506.609375 734.535156 483.25 763.089844 483.25 "/>
<path fill="none" stroke-width="339.999" stroke-linecap="round" stroke-linejoin="round" stroke="rgb(24.31488%, 27.050781%, 30.589294%)" stroke-opacity="1" stroke-miterlimit="2.61313" d="M 8182.539062 12149.6875 L 11362.5 12149.6875 C 12129.882812 12149.6875 12757.8125 11521.914062 12757.8125 10754.414062 L 12757.8125 8450.585938 C 12757.8125 7683.164062 12129.882812 7055.273438 11362.5 7055.273438 L 8182.539062 7055.273438 C 7415.117188 7055.273438 6787.226562 7683.164062 6787.226562 8450.585938 L 6787.226562 10754.414062 C 6787.226562 11521.914062 7415.117188 12149.6875 8182.539062 12149.6875 Z M 8182.539062 12149.6875 " transform="matrix(0.1, 0, 0, -0.1, 0, 2000)"/>
<path fill="none" stroke-width="339.999" stroke-linecap="round" stroke-linejoin="round" stroke="rgb(24.31488%, 27.050781%, 30.589294%)" stroke-opacity="1" stroke-miterlimit="2.61313" d="M 12757.8125 10413.710938 L 13260.78125 10413.710938 C 14189.6875 10413.710938 15033.515625 10034.296875 15644.804688 9423.046875 C 16256.015625 8811.796875 16635.507812 7967.929688 16635.507812 7039.0625 L 16635.507812 6974.140625 L 15013.007812 6974.140625 L 15013.007812 7039.0625 C 15013.007812 7520.078125 14815.585938 7957.96875 14497.695312 8275.9375 C 14179.6875 8593.90625 13741.796875 8791.289062 13260.78125 8791.289062 L 12757.8125 8791.289062 Z M 6787.226562 8791.289062 L 4759.179688 8791.289062 L 4759.179688 10413.710938 L 6787.226562 10413.710938 Z M 6787.226562 8791.289062 " transform="matrix(0.1, 0, 0, -0.1, 0, 2000)"/>
<path fill="none" stroke-width="339.999" stroke-linecap="round" stroke-linejoin="round" stroke="rgb(24.31488%, 27.050781%, 30.589294%)" stroke-opacity="1" stroke-miterlimit="2.61313" d="M 9772.539062 10770.703125 C 10417.695312 10770.703125 10940.703125 10247.695312 10940.703125 9602.5 C 10940.703125 8957.34375 10417.695312 8434.335938 9772.539062 8434.335938 C 9127.34375 8434.335938 8604.375 8957.34375 8604.375 9602.5 C 8604.375 10247.695312 9127.34375 10770.703125 9772.539062 10770.703125 Z M 9772.539062 10770.703125 " transform="matrix(0.1, 0, 0, -0.1, 0, 2000)"/>
<path fill="none" stroke-width="339.999" stroke-linecap="round" stroke-linejoin="round" stroke="rgb(24.31488%, 27.050781%, 30.589294%)" stroke-opacity="1" stroke-miterlimit="2.61313" d="M 14575 6974.140625 L 17073.515625 6974.140625 C 17198.398438 6974.140625 17300.703125 6871.914062 17300.703125 6746.992188 L 17300.703125 5773.554688 C 17300.703125 5648.59375 17198.398438 5546.40625 17073.515625 5546.40625 L 14575 5546.40625 C 14450 5546.40625 14347.8125 5648.59375 14347.8125 5773.554688 L 14347.8125 6746.992188 C 14347.8125 6871.914062 14450 6974.140625 14575 6974.140625 Z M 14575 6974.140625 " transform="matrix(0.1, 0, 0, -0.1, 0, 2000)"/>
<path fill="none" stroke-width="339.999" stroke-linecap="round" stroke-linejoin="round" stroke="rgb(24.31488%, 27.050781%, 30.589294%)" stroke-opacity="1" stroke-miterlimit="2.61313" d="M 4288.671875 12198.398438 L 2536.40625 12198.398438 C 2491.796875 12198.398438 2455.3125 12161.914062 2455.3125 12117.304688 L 2455.3125 7006.601562 L 4288.671875 7006.601562 C 4547.421875 7006.601562 4759.179688 7218.320312 4759.179688 7477.109375 L 4759.179688 11727.890625 C 4759.179688 11986.71875 4547.421875 12198.398438 4288.671875 12198.398438 Z M 4288.671875 12198.398438 " transform="matrix(0.1, 0, 0, -0.1, 0, 2000)"/>
<path fill="none" stroke-width="339.999" stroke-linecap="round" stroke-linejoin="round" stroke="rgb(24.31488%, 27.050781%, 30.589294%)" stroke-opacity="1" stroke-miterlimit="2.61313" d="M 9123.554688 16141.015625 L 10421.484375 16141.015625 L 10421.484375 15167.5 L 9123.554688 15167.5 Z M 10421.484375 13837.109375 L 10421.484375 12149.6875 L 9123.554688 12149.6875 L 9123.554688 13837.109375 Z M 10421.484375 13837.109375 " transform="matrix(0.1, 0, 0, -0.1, 0, 2000)"/>
<path fill="none" stroke-width="339.999" stroke-linecap="round" stroke-linejoin="round" stroke="rgb(24.31488%, 27.050781%, 30.589294%)" stroke-opacity="1" stroke-miterlimit="2.61313" d="M 7630.898438 15167.5 L 11914.101562 15167.5 C 12199.6875 15167.5 12433.28125 14933.90625 12433.28125 14648.28125 L 12433.28125 14356.289062 C 12433.28125 14070.703125 12199.6875 13837.109375 11914.101562 13837.109375 L 7630.898438 13837.109375 C 7345.351562 13837.109375 7111.71875 14070.703125 7111.71875 14356.289062 L 7111.71875 14648.28125 C 7111.71875 14933.90625 7345.351562 15167.5 7630.898438 15167.5 Z M 7630.898438 15167.5 " transform="matrix(0.1, 0, 0, -0.1, 0, 2000)"/>
</svg>
