<?xml version="1.0" encoding="iso-8859-1"?>
<!-- Uploaded to: SVG Repo, www.svgrepo.com, Generator: SVG Repo Mixer Tools -->
<svg fill="#000000" height="800px" width="800px" version="1.1" id="Layer_1" xmlns="http://www.w3.org/2000/svg" xmlns:xlink="http://www.w3.org/1999/xlink" 
	 viewBox="0 0 512 512" xml:space="preserve">
<g>
	<g>
		<path d="M192.016,244.936c-12.236-10.018-29.341-17.246-48.16-20.354c-41.064-6.783-76.523,7.873-80.734,33.364
			c-0.61,3.69,0.079,9.252,6.825,14.788c16.287,13.368,68.341,24.429,103.163,24.429c10.439,0,19.333-0.995,25.246-3.22
			c8.166-3.074,10.607-8.118,11.217-11.808v0.001C211.714,269.168,205.479,255.958,192.016,244.936z M194.104,278.595
			c-4.296,2.656-24.603,4.937-59.048-0.752c-34.446-5.689-52.938-14.38-56.151-18.276c2.115-9.052,12.318-14.14,18.349-16.4
			c12.257-4.595,27.893-5.657,44.024-2.992c16.133,2.665,30.596,8.698,40.725,16.991
			C186.988,261.246,195.014,269.344,194.104,278.595z"/>
	</g>
</g>
<g>
	<g>
		<path d="M448.833,257.945c-4.212-25.49-39.671-40.147-80.735-33.364c-41.06,6.783-69.925,32.063-65.716,57.554c0,0,0,0,0,0.001
			c2.26,13.683,23.001,14.621,29.818,14.929c2.007,0.091,4.111,0.136,6.301,0.136c11.792,0,26.068-1.301,40.966-3.762
			c17.669-2.919,33.98-7.097,45.93-11.767C431.752,279.189,451.094,271.63,448.833,257.945z M376.895,277.841
			c-34.446,5.69-54.751,3.409-59.047,0.752c-0.907-9.249,7.119-17.347,12.102-21.427c10.128-8.292,24.591-14.326,40.724-16.991
			c16.132-2.664,31.767-1.603,44.025,2.991c6.03,2.26,16.233,7.348,18.349,16.399C429.836,263.461,411.342,272.152,376.895,277.841z
			"/>
	</g>
</g>
<g>
	<g>
		<path d="M482.894,179.922c-14.438-16.872-33.084-30.144-53.924-38.384c-21.755-8.602-44.901-11.242-66.936-7.634
			c-15.472,2.533-30.201,7.212-44.448,11.736c-20.705,6.576-40.264,12.788-61.61,12.788c-21.347,0-40.904-6.212-61.61-12.788
			c-14.246-4.525-28.976-9.203-44.448-11.736c-4.317-0.707-8.815-1.181-13.37-1.41c-4.372-0.219-8.07,3.138-8.289,7.497
			c-0.219,4.359,3.138,8.07,7.496,8.288c3.967,0.199,7.873,0.611,11.61,1.222c14.337,2.348,28.51,6.849,42.217,11.203
			c20.942,6.651,42.598,13.529,66.394,13.529s45.452-6.878,66.394-13.529c13.708-4.354,27.881-8.855,42.217-11.203
			c38.08-6.236,79.804,9.739,106.297,40.697c23.77,27.775,31.222,62.511,20.449,95.304c-8.694,26.463-26.252,47.872-50.776,61.911
			c-3.789,2.169-5.101,6.997-2.932,10.785c1.459,2.55,4.124,3.978,6.866,3.978c1.332,0,2.681-0.336,3.919-1.045
			c27.972-16.011,48.007-40.458,57.939-70.694C518.888,252.273,510.338,211.993,482.894,179.922z"/>
	</g>
</g>
<g>
	<g>
		<path d="M420.513,365.164c-1.117-4.219-5.434-6.735-9.662-5.618c-17.066,4.516-35.475,5.504-53.205,2.86
			c-24.328-3.72-40.217-12.893-54.235-20.987c-14.534-8.391-28.262-16.316-47.435-16.316c-19.173,0-32.901,7.925-47.434,16.316
			c-14.019,8.094-29.907,17.267-54.205,20.982c-28.472,4.244-57.454-0.811-81.618-14.234
			c-25.218-14.009-43.234-35.679-52.101-62.666c-10.917-33.233-1.602-60.657,8.138-77.812
			c16.068-28.305,45.046-49.553,77.515-56.839c4.258-0.956,6.935-5.182,5.981-9.441c-0.956-4.259-5.182-6.937-9.442-5.981
			c-36.743,8.246-69.566,32.343-87.798,64.459c-15.994,28.174-19.334,60.331-9.408,90.548
			c10.129,30.834,30.684,55.575,59.441,71.549c20.933,11.629,45.032,17.683,69.583,17.682c7.34,0,14.723-0.542,22.07-1.637
			c27.267-4.17,44.523-14.131,59.747-22.921c13.74-7.933,24.594-14.199,39.532-14.199c14.938,0,25.792,6.265,39.532,14.199
			c15.225,8.79,32.482,18.753,59.777,22.927c19.87,2.963,40.481,1.852,59.608-3.209
			C419.113,373.708,421.628,369.383,420.513,365.164z"/>
	</g>
</g>
</svg>