<?xml version="1.0" ?><!-- Uploaded to: SVG Repo, www.svgrepo.com, Generator: SVG Repo Mixer Tools -->
<svg width="800px" height="800px" viewBox="0 0 24 24" data-name="025_SCIENCE" id="_025_SCIENCE" xmlns="http://www.w3.org/2000/svg"><defs><style>.cls-1{fill:#333;}</style></defs><path class="cls-1" d="M12,14.44a1.07,1.07,0,0,1-.39-.07l-10-4.23A1,1,0,0,1,1,9.22a1,1,0,0,1,.61-.92l10-4.22a1,1,0,0,1,.78,0l10,4.22a1,1,0,0,1,.61.92,1,1,0,0,1-.61.92l-10,4.23A1.07,1.07,0,0,1,12,14.44ZM4.57,9.22,12,12.36l7.43-3.14L12,6.09Z"/><path class="cls-1" d="M12,19.22c-4.49,0-8-2.08-8-4.75V10.79a1,1,0,0,1,2,0v3.68c0,1.3,2.57,2.75,6,2.75s6-1.45,6-2.75v-.65a1,1,0,0,1,2,0v.65C20,17.14,16.49,19.22,12,19.22Z"/><path class="cls-1" d="M22,14.22a1,1,0,0,1-1-1v-4a1,1,0,1,1,2,0v4A1,1,0,0,1,22,14.22Z"/></svg>