<?xml version="1.0" encoding="utf-8"?>
<svg xmlns="http://www.w3.org/2000/svg" id="a" viewBox="0 0 63.7 50">
  <defs>
    <style>.b{fill:#50abf1;}</style>
  </defs>
  <path class="b" d="M29,47.3c-2.5-2.7-2.6-2.8-2.1-3.3,.7-.8,31.4-28.9,31.8-29.1,.4-.2,4.1,1.6,5,2.4,.3,.3-2.1,2.9-15.5,16.5-8.7,8.9-16,16.2-16.2,16.2-.2,0-1.5-1.2-3-2.7h0Z"/>
  <path class="b" d="M22.1,40.1c-1.4-1.4-2.2-2.4-2.1-2.7,.2-.4,17.8-14.7,18.1-14.6,.4,0,4.6,3.2,4.6,3.5s-17.7,16.1-18.1,16.1-1.2-1-2.5-2.3h0Z"/>
  <path class="b" d="M15.7,33.6c-1.1-1.2-1.7-2.2-1.6-2.3,.7-.7,8.4-6,8.7-6,.4,0,4.1,3.2,4.1,3.5s-8.3,6.8-8.9,6.8-1.3-.9-2.3-2.1Z"/>
  <path class="b" d="M10.4,28.2c-1.5-1.5-1.7-1.8-1.4-2.2,.5-.5,24.9-16.2,25.4-16.4,.4-.1,3.8,1.9,3.8,2.3S13.2,29.7,12.6,29.8c-.2,0-1.2-.6-2.2-1.7h0Z"/>
  <path class="b" d="M26.7,25.7c-1-.8-1.8-1.7-1.8-1.8,0-.2,.9-.9,2-1.7,1.1-.8,5.9-4.2,10.8-7.7,4.8-3.5,9-6.3,9.2-6.3,.7,0,3.9,1.9,3.8,2.2-.2,.5-21.3,16.8-21.7,16.8-.2,0-1.2-.7-2.2-1.5h0Z"/>
  <path class="b" d="M5.5,23.2c-1.2-1.3-1.4-1.6-1.1-1.9,.3-.2,15.4-9.2,17.2-10.2,.3-.2,3.5,2.1,3.4,2.5-.1,.4-17.2,11.1-17.7,11.1-.2,0-1.1-.7-1.9-1.5h0Z"/>
  <path class="b" d="M42,23.3c-1.1-.8-2.1-1.6-2.1-1.7,0-.2,9.9-8.5,12.2-10.1,.4-.3,.8-.2,2.7,.8,1.2,.6,2.2,1.3,2.2,1.4,0,.4-11.9,10.9-12.5,11-.3,0-1.4-.6-2.5-1.4h0Z"/>
  <path class="b" d="M1.5,18.9l-1.5-1.5,.6-.4c.4-.2,7.5-4.2,16-8.7L32,0l1.5,.7c.8,.4,1.5,.9,1.5,1S3.4,20.4,3,20.4s-.7-.7-1.5-1.5h0Z"/>
  <path class="b" d="M25,11.5c-.7-.5-1.3-1.1-1.3-1.3,0-.2,2.9-2,6.4-4.1l6.4-3.8,1.6,.9c.9,.5,1.6,1,1.6,1.1,0,.3-12.5,8.2-13,8.1-.2,0-1-.4-1.7-1h0Z"/>
  <path class="b" d="M37.8,9.9c-.9-.5-1.6-1.1-1.6-1.3,0-.3,4.4-3.2,5.1-3.4,.3,0,3.3,1.5,3.5,1.8,0,.1,0,.4-.3,.6-.9,.8-4.5,3.2-4.8,3.2-.2,0-1-.4-1.9-1h0Z"/>
</svg>