<svg xmlns="http://www.w3.org/2000/svg" enable-background="new 0 0 50 50" viewBox="0 0 50 50" id="sftp"><path fill="#34a853" d="M35.30801,46.14305H14.69193c-0.92876,0-1.68167-0.75291-1.68167-1.68167v0
		c0-0.92876,0.75291-1.68167,1.68167-1.68167h20.61609c0.92876,0,1.68167,0.75291,1.68167,1.68167v0
		C36.98969,45.39014,36.23677,46.14305,35.30801,46.14305z" class="color656766 svgShape"></path><path fill="#34a853" d="M26.68164,44.28123V34.15332c0-0.92877-0.7529-1.68167-1.68167-1.68167s-1.68167,0.7529-1.68167,1.68167
		v10.12791H26.68164z" class="color656766 svgShape"></path><path fill="#fbbc05" d="M48.17601,32.28563V8.84936c0-2.05934-1.66943-3.72877-3.72877-3.72877H25.51842
		c-1.1866,0-2.30236-0.56477-3.00493-1.52103l-0.79241-1.07853C21.01852,1.56477,19.90276,1,18.71616,1H5.5527
		C3.49336,1,1.82393,2.66943,1.82393,4.72877v27.55686c0,2.05934,1.66943,3.72877,3.72877,3.72877h38.89454
		C46.50658,36.0144,48.17601,34.34497,48.17601,32.28563z" class="colorffc966 svgShape"></path><path fill="#4285f4" d="M15.0378 18.38353c-.12731.10468-.19144.24425-.19144.41776 0 .17352.07827.3112.23387.41305.15654.10279.51773.2235 1.08355.36307.56582.13957 1.00528.34798 1.31742.62617.31309.27914.46963.68559.46963 1.22029 0 .5347-.20087.96755-.60166 1.30045-.40079.33289-.92795.49887-1.58147.49887-.94398 0-1.7946-.34987-2.55091-1.04866l.79309-.97227c.64315.56299 1.23726.84402 1.78328.84402.24425 0 .43568-.05281.57525-.15749.13957-.10562.20935-.24802.20935-.42719 0-.17823-.0745-.32063-.22161-.42625-.14806-.10468-.44134-.21124-.87891-.31969-.69407-.16503-1.20143-.3791-1.52206-.64409-.32158-.26405-.48189-.67899-.48189-1.24481 0-.56582.20275-1.00245.6092-1.30893.40645-.30743.9138-.46115 1.523-.46115.39796 0 .79592.06884 1.19388.20464.39796.13674.745.33006 1.04017.57997l-.67333.97227c-.51773-.3923-1.05243-.58846-1.6041-.58846C15.34052 18.2251 15.16606 18.27791 15.0378 18.38353zM24.03153 17.19342v1.16842h-2.76309v1.28819h2.6273v1.16842h-2.6273v2.33684h-1.33062v-5.96187H24.03153zM28.53547 18.34487v4.81042h-1.33062v-4.81042h-1.68898v-1.15145h4.70763v1.15145H28.53547zM36.1552 17.72624c.41776.35552.62712.90154.62712 1.63805 0 .73651-.21501 1.27498-.64409 1.61636-.42908.34044-1.08449.51113-1.96529.51113H33.3789v1.66351h-1.32968v-5.96187h2.1058C35.07071 17.19342 35.73743 17.37071 36.1552 17.72624zM35.17915 20.07157c.15843-.17918.23859-.4404.23859-.78461 0-.34327-.10374-.58846-.3112-.73368-.20747-.14428-.52999-.2169-.9685-.2169H33.3789v2.00395h.89589C34.71801 20.34033 35.01978 20.25074 35.17915 20.07157z" class="colorffffff svgShape"></path><circle cx="25" cy="44.461" r="4.539" fill="#ea4335" class="colorec6e62 svgShape"></circle></svg>