<svg version="1.1" xmlns="http://www.w3.org/2000/svg" xmlns:xlink="http://www.w3.org/1999/xlink" role="group" style="width: 100%; height: 100%; overflow: visible;"><defs><clipPath id="id-479"><rect width="180" height="150"></rect></clipPath><clipPath id="id-520"></clipPath><filter id="filter-id-484" filterUnits="objectBoundingBox" width="200%" height="200%" x="-50%" y="-50%"><feGaussianBlur result="blurOut" in="SourceGraphic" stdDeviation="1.5"></feGaussianBlur><feOffset result="offsetBlur" dx="1" dy="1"></feOffset><feFlood flood-color="#000000" flood-opacity="0.5"></feFlood><feComposite in2="offsetBlur" operator="in"></feComposite><feMerge><feMergeNode></feMergeNode><feMergeNode in="SourceGraphic"></feMergeNode></feMerge></filter><filter id="filter-id-525" filterUnits="objectBoundingBox" width="200%" height="200%" x="-50%" y="-50%"><feGaussianBlur result="blurOut" in="SourceGraphic" stdDeviation="1.5"></feGaussianBlur><feOffset result="offsetBlur" dx="1" dy="1"></feOffset><feFlood flood-color="#000000" flood-opacity="0.5"></feFlood><feComposite in2="offsetBlur" operator="in"></feComposite><feMerge><feMergeNode></feMergeNode><feMergeNode in="SourceGraphic"></feMergeNode></feMerge></filter><linearGradient id="gradient-id-499" x1="100%" x2="0%" y1="50%" y2="50%"><stop stop-color="#9dcff5" offset="0"></stop><stop stop-color="#d3e9fa" offset="1"></stop></linearGradient><clipPath id="id-771" transform="translate(72.5,60) scale(0.02037351443123939)"><path d="M10 5665 l0 -225 1800 0 1800 0 0 225 0 225 -1800 0 -1800 0 0 -225z M170 4825 l0 -515 -58 0 c-32 0 -63 -5 -70 -12 -16 -16 -16 -200 0
-216 7 -7 38 -12 70 -12 l58 0 0 -1045 0 -1045 -68 0 c-40 0 -73 -5 -80 -12
-16 -16 -16 -200 0 -216 7 -7 40 -12 80 -12 l68 0 0 -590 0 -590 1100 0 1100
0 0 1980 0 1980 60 0 60 0 0 -255 0 -255 315 0 315 0 0 255 0 255 65 0 65 0 0
-1980 0 -1980 100 0 100 0 0 590 0 590 68 0 c40 0 73 5 80 12 16 16 16 200 0
216 -7 7 -40 12 -80 12 l-68 0 0 1045 0 1045 78 0 c47 0 83 5 90 12 16 16 16
200 0 216 -7 7 -43 12 -90 12 l-78 0 0 515 0 515 -1640 0 -1640 0 0 -515z
m1749 -1196 c157 -36 294 -167 336 -323 13 -47 16 -89 13 -158 -7 -158 -31
-196 -313 -490 l-131 -137 -179 170 c-251 238 -285 292 -293 456 -5 102 16
193 61 267 35 56 121 140 176 169 94 52 227 70 330 46z M2490 3575 l0 -305 315 0 315 0 0 305 0 305 -315 0 -315 0 0 -305z M2490 2845 l0 -305 315 0 315 0 0 305 0 305 -315 0 -315 0 0 -305z M2490 2110 l0 -300 315 0 315 0 0 300 0 300 -315 0 -315 0 0 -300z M2490 1375 l0 -305 315 0 315 0 0 305 0 305 -315 0 -315 0 0 -305z M2490 755 l0 -195 315 0 315 0 0 195 0 195 -315 0 -315 0 0 -195z M10 225 l0 -225 1800 0 1800 0 0 225 0 225 -1800 0 -1800 0 0 -225z" transform="translate(-1820,-2945)"></path></clipPath></defs><g><g fill="#ffffff" fill-opacity="0"><rect width="180" height="150"></rect></g><g><g role="region" clip-path="url(&quot;#id-479&quot;)" opacity="1" aria-label="Chart"><g transform="translate(15,15)"><g><g><g><g><g><g><g role="group" opacity="1" aria-label="Series"><g><g clip-path="url(&quot;#id-520&quot;)"><g></g></g><g></g><g transform="translate(0,0)" clip-path="url(&quot;#id-771&quot;)"><g><g fill-opacity="0.5" fill="#6db7ef" opacity="1" transform="translate(72.5,1.791)"><g><g><path d=" M-38.876,0  L38.876,0  Q38.876,0 38.876,0 L-38.876,0  Q-38.876,0 -38.876,0"></path></g></g></g><g fill-opacity="0.5" display="none" fill="url(&quot;#gradient-id-499&quot;)" opacity="0" aria-hidden="true" transform="translate(72.5,0)"><g><g><path d=" M-2,0  L2,0  Q2,0 2,0 L-2,0  Q-2,0 -2,0"></path></g></g></g><g fill="#11588d" role="menuitem" focusable="true" tabindex="0" stroke="#11588d"><g><g><path d=" M33.624,0  L111.376,0  L111.376,0  L33.624,0 "></path></g></g></g><g fill-opacity="0.5" fill="#11588d" opacity="1" transform="translate(72.5,0)"><g><g><path d=" M-38.876,0  L38.876,0  Q38.876,0 38.876,0 L-38.876,0  Q-38.876,0 -38.876,0"></path></g></g></g><g fill="#1a8be2" role="menuitem" focusable="true" tabindex="0" stroke="#1a8be2"><g><g><path d=" M33.624,0  L111.376,0  L111.376,0  L33.624,0 "></path></g></g></g><g fill-opacity="0.5" fill="#1a8be2" opacity="1" transform="translate(72.5,0)"><g><g><path d=" M-38.876,0  L38.876,0  Q38.876,0 38.876,0 L-38.876,0  Q-38.876,0 -38.876,0"></path></g></g></g><g fill="#6db7ef" role="menuitem" focusable="true" tabindex="0" stroke="#6db7ef"><g><g><path d=" M33.624,0  L111.376,0  L111.376,1.791  L33.624,1.791 "></path></g></g></g><g fill="url(&quot;#gradient-id-499&quot;)" role="menuitem" focusable="true" tabindex="0" stroke="url(&quot;#gradient-id-499&quot;)" transform="translate(0,1.791)" id="id-742"><g><g><path d=" M33.624,0  L111.376,0  L111.376,118.209  L33.624,118.209 "></path></g></g></g><g visibility="hidden" transform="translate(72.5,60) scale(0.02037351443123939)"></g></g></g><g transform="translate(0,0)"><g><g fill-opacity="0" stroke-opacity="0.2" stroke="#000000" stroke-width="1" display="none" opacity="0" aria-hidden="true"><path></path></g><g fill-opacity="0" stroke-opacity="0.2" stroke="#000000" stroke-width="1" display="none" opacity="0" aria-hidden="true"><path></path></g><g fill-opacity="0" stroke-opacity="0.2" stroke="#000000" stroke-width="1" display="none" opacity="0" aria-hidden="true"><path></path></g><g fill-opacity="0" stroke-opacity="0.2" stroke="#000000" stroke-width="1" display="none" opacity="0" aria-hidden="true"><path></path></g></g></g><g transform="translate(0,0)"><g><g fill="#000000" display="none" aria-label="CRITICAL: 0.0%" opacity="0" aria-hidden="true" transform="translate(72.5,0)" style="pointer-events: none;"><g></g></g><g fill="#000000" display="none" aria-label="HIGH: 0.0%" opacity="0" aria-hidden="true" transform="translate(72.5,0)" style="pointer-events: none;"><g></g></g><g fill="#000000" display="none" aria-label="LOW: 1.5%" opacity="0" aria-hidden="true" transform="translate(72.5,0)" style="pointer-events: none;"><g></g></g><g fill="#000000" display="none" aria-label="NORMAL: 98.5%" opacity="0" aria-hidden="true" transform="translate(72.5,0)" style="pointer-events: none;"><g></g></g></g></g></g></g></g></g><g><g><g><g></g></g></g></g></g></g></g></g></g></g><g><g><g role="tooltip" visibility="hidden" opacity="0"><g fill="#ffffff" fill-opacity="0.9" stroke-width="1" stroke-opacity="1" stroke="#ffffff" filter="url(&quot;#filter-id-484&quot;)" style="pointer-events: none;" transform="translate(0,6)"><path d="M3,0 L3,0 L0,-6 L13,0 L21,0 a3,3 0 0 1 3,3 L24,8 a3,3 0 0 1 -3,3 L3,11 a3,3 0 0 1 -3,-3 L0,3 a3,3 0 0 1 3,-3"></path></g><g><g fill="#ffffff" style="pointer-events: none;" transform="translate(12,6)"><g transform="translate(0,7)" display="none"></g></g></g></g><g visibility="hidden" style="pointer-events: none;" display="none"><g fill="#ffffff" opacity="1"><rect width="180" height="150"></rect></g><g><g transform="translate(90,75)"><g><g stroke-opacity="1" fill="#f3f3f3" fill-opacity="0.8"><g><g><path d=" M53,0  a53,53,0,0,1,-106,0 a53,53,0,0,1,106,0 M42,0  a42,42,0,0,0,-84,0 a42,42,0,0,0,84,0 L42,0 "></path></g></g></g><g stroke-opacity="1" fill="#000000" fill-opacity="0.2"><g><g><path d=" M50,0  a50,50,0,0,1,-100,0 a50,50,0,0,1,100,0 M45,0  a45,45,0,0,0,-90,0 a45,45,0,0,0,90,0 L45,0 "></path></g></g></g><g fill="#000000" fill-opacity="0.4"><g transform="translate(-18.5,-8.5)" style="user-select: none;"><text x="18.5px" y="16.5" dy="-4.455" text-anchor="middle"><tspan>100%</tspan></text></g></g></g></g></g></g><g role="tooltip" opacity="0" aria-describedby="id-742" transform="translate(87.5,75.8955)" aria-hidden="true" visibility="hidden"><g fill="url(&quot;#gradient-id-499&quot;)" fill-opacity="0.9" stroke-width="1" stroke-opacity="1" stroke="#ffffff" filter="url(&quot;#filter-id-525&quot;)" style="pointer-events: none;" transform="translate(-82.5,-34)"><path d="M3,0 L162,0 a3,3 0 0 1 3,3 L165,25 a3,3 0 0 1 -3,3 L162,28 L87.5,28 L82.5,34 L77.5,28 L3,28 a3,3 0 0 1 -3,-3 L0,3 a3,3 0 0 1 3,-3"></path></g><g><g fill="#ffffff" style="pointer-events: none;" transform="translate(0,-34)"><g transform="translate(-70.5,7)" style="user-select: none;"><text x="0" y="16.5" dy="-4.455"><tspan>NORMAL: 98.5% (66)</tspan></text></g></g></g></g></g></g></g></g></svg>