<svg width="63" height="77" viewBox="0 0 63 77" fill="none" xmlns="http://www.w3.org/2000/svg">
<path d="M26.25 30.1454H7C5.06625 30.1454 3.5 28.5583 3.5 26.5988V14.1861C3.5 12.2266 5.06625 10.6395 7 10.6395H26.25C28.1838 10.6395 29.75 12.2266 29.75 14.1861V26.5988C29.75 28.5583 28.1838 30.1454 26.25 30.1454Z" fill="#D1C4E9"/>
<path d="M56 53.1977H36.75C34.8162 53.1977 33.25 51.6106 33.25 49.6512V37.2384C33.25 35.2789 34.8162 33.6919 36.75 33.6919H56C57.9338 33.6919 59.5 35.2789 59.5 37.2384V49.6512C59.5 51.6106 57.9338 53.1977 56 53.1977Z" fill="#D1C4E9"/>
<path d="M56.75 30.5058H37.5C35.5662 30.5058 34 28.9188 34 26.9593V14.5465C34 12.5871 35.5662 11 37.5 11H56.75C58.6838 11 60.25 12.5871 60.25 14.5465V26.9593C60.25 28.9188 58.6838 30.5058 56.75 30.5058Z" fill="#D1C4E9"/>
<path d="M26.75 76.25H7.5C5.56625 76.25 4 74.6629 4 72.7035V60.2907C4 58.3313 5.56625 56.7442 7.5 56.7442H26.75C28.6838 56.7442 30.25 58.3313 30.25 60.2907V72.7035C30.25 74.6629 28.6838 76.25 26.75 76.25Z" fill="#D1C4E9"/>
<path d="M56.5 76.25H37.25C35.3162 76.25 33.75 74.6629 33.75 72.7035V60.2907C33.75 58.3313 35.3162 56.7442 37.25 56.7442H56.5C58.4338 56.7442 60 58.3313 60 60.2907V72.7035C60 74.6629 58.4338 76.25 56.5 76.25Z" fill="#D1C4E9"/>
<path d="M16 34C10.4861 34 6 38.4861 6 44C6 49.5139 10.4861 54 16 54C21.5139 54 26 49.5139 26 44C26 38.4861 21.5139 34 16 34ZM19.8462 44.7692H16.7692V47.8462C16.7692 48.0502 16.6882 48.2458 16.5439 48.3901C16.3997 48.5343 16.204 48.6154 16 48.6154C15.796 48.6154 15.6003 48.5343 15.4561 48.3901C15.3118 48.2458 15.2308 48.0502 15.2308 47.8462V44.7692H12.1538C11.9498 44.7692 11.7542 44.6882 11.6099 44.5439C11.4657 44.3997 11.3846 44.204 11.3846 44C11.3846 43.796 11.4657 43.6003 11.6099 43.4561C11.7542 43.3118 11.9498 43.2308 12.1538 43.2308H15.2308V40.1538C15.2308 39.9498 15.3118 39.7542 15.4561 39.6099C15.6003 39.4657 15.796 39.3846 16 39.3846C16.204 39.3846 16.3997 39.4657 16.5439 39.6099C16.6882 39.7542 16.7692 39.9498 16.7692 40.1538V43.2308H19.8462C20.0502 43.2308 20.2458 43.3118 20.3901 43.4561C20.5343 43.6003 20.6154 43.796 20.6154 44C20.6154 44.204 20.5343 44.3997 20.3901 44.5439C20.2458 44.6882 20.0502 44.7692 19.8462 44.7692Z" fill="#67047A"/>
</svg>
