<svg width="54" height="54" viewBox="0 0 54 54" fill="none" xmlns="http://www.w3.org/2000/svg">
<path d="M53.1 33.3H35.1C34.6023 33.3 34.2 33.7032 34.2 34.1999C34.2 34.6967 34.6023 35.0999 35.1 35.0999H53.1C53.5978 35.0999 54 34.6967 54 34.1999C54 33.7032 53.5978 33.3 53.1 33.3Z" fill="#67047A"/>
<path d="M53.1 18.9H45V10.8C45 10.3032 44.5978 9.90002 44.1001 9.90002C43.6024 9.90002 43.2 10.3032 43.2 10.8V18.9H35.1C34.6023 18.9 34.2 19.3032 34.2 19.8C34.2 20.2967 34.6023 20.6999 35.1 20.6999H43.2V28.7999C43.2 29.2967 43.6023 29.6999 44.1 29.6999C44.5977 29.6999 44.9999 29.2967 44.9999 28.7999V20.6999H53.0999C53.5976 20.6999 53.9999 20.2967 53.9999 19.8C53.9999 19.3032 53.5977 18.9 53.1 18.9Z" fill="#67047A"/>
<path d="M23.4 6.29996H7.20004C6.70234 6.29996 6.30008 6.70316 6.30008 7.19992V21.6C6.30008 22.0968 6.70234 22.5 7.20004 22.5H23.4C23.8978 22.5 24.3 22.0968 24.3 21.6V7.20003C24.3 6.70316 23.8978 6.29996 23.4 6.29996Z" fill="#D1C4E9"/>
<path d="M23.4 31.5H7.20004C6.70234 31.5 6.30008 31.9032 6.30008 32.4V46.8C6.30008 47.2967 6.70234 47.6999 7.20004 47.6999H23.4C23.8978 47.6999 24.3 47.2967 24.3 46.8V32.4C24.3 31.9032 23.8978 31.5 23.4 31.5Z" fill="#D1C4E9"/>
<path d="M28.8 0H1.80004C0.807258 0 0 0.807258 0 1.80004V52.2001C0 53.1927 0.807258 54 1.80004 54H28.8C29.7927 54 30.6001 53.1927 30.6001 52.2V1.80004C30.6 0.807258 29.7927 0 28.8 0ZM1.80004 52.2V1.80004H28.8L28.8009 52.2001L1.80004 52.2Z" fill="#D1C4E9"/>
</svg>
