<svg width="74" height="54" viewBox="0 0 74 54" fill="none" xmlns="http://www.w3.org/2000/svg">
<path fill-rule="evenodd" clip-rule="evenodd" d="M10.3333 0.333333C4.81051 0.333333 0.333344 4.8105 0.333344 10.3333V43.6667C0.333344 49.1897 4.81051 53.6667 10.3333 53.6667H63.6667C69.1897 53.6667 73.6667 49.1897 73.6667 43.6667V10.3333C73.6667 4.8105 69.1897 0.333333 63.6667 0.333333H10.3333ZM7.00001 10.3333C7.00001 8.4924 8.49241 7 10.3333 7H37H63.6667C65.5077 7 67 8.4924 67 10.3333V23.6667H55.0473L59.357 19.357C60.6587 18.0553 60.6587 15.9447 59.357 14.643C58.0553 13.3412 55.9447 13.3412 54.643 14.643L44.643 24.643C43.3413 25.9447 43.3413 28.0553 44.643 29.357L54.643 39.357C55.9447 40.6587 58.0553 40.6587 59.357 39.357C60.6587 38.0553 60.6587 35.9447 59.357 34.643L55.0473 30.3333H67V43.6667C67 45.5077 65.5077 47 63.6667 47H10.3333C8.49241 47 7.00001 45.5077 7.00001 43.6667V30.3333H18.9526L14.643 34.643C13.3412 35.9447 13.3412 38.0553 14.643 39.357C15.9447 40.6587 18.0553 40.6587 19.357 39.357L29.357 29.357C30.6587 28.0553 30.6587 25.9447 29.357 24.643L19.357 14.643C18.0553 13.3412 15.9447 13.3412 14.643 14.643C13.3412 15.9447 13.3412 18.0553 14.643 19.357L18.9526 23.6667H7.00001V10.3333Z" fill="#D1C4E9"/>
<path d="M40.3333 13.6667C40.3333 15.5076 38.841 17 37 17C35.159 17 33.6667 15.5076 33.6667 13.6667C33.6667 11.8257 35.159 10.3333 37 10.3333C38.841 10.3333 40.3333 11.8257 40.3333 13.6667Z" fill="#67047A"/>
<path d="M37 30.3333C38.841 30.3333 40.3333 28.841 40.3333 27C40.3333 25.159 38.841 23.6667 37 23.6667C35.159 23.6667 33.6667 25.159 33.6667 27C33.6667 28.841 35.159 30.3333 37 30.3333Z" fill="#67047A"/>
<path d="M40.3333 40.3333C40.3333 42.1743 38.841 43.6667 37 43.6667C35.159 43.6667 33.6667 42.1743 33.6667 40.3333C33.6667 38.4923 35.159 37 37 37C38.841 37 40.3333 38.4923 40.3333 40.3333Z" fill="#67047A"/>
</svg>
