<svg width="54" height="67" viewBox="0 0 54 67" fill="none" xmlns="http://www.w3.org/2000/svg">
<path d="M22.5 26.7317H6C4.3425 26.7317 3 25.3714 3 23.6919V13.0523C3 11.3728 4.3425 10.0125 6 10.0125H22.5C24.1575 10.0125 25.5 11.3728 25.5 13.0523V23.6919C25.5 25.3714 24.1575 26.7317 22.5 26.7317Z" fill="#D1C4E9"/>
<path d="M48 26.7317H31.5C29.8425 26.7317 28.5 25.3714 28.5 23.6919V13.0523C28.5 11.3728 29.8425 10.0125 31.5 10.0125H33.885C33.885 10.0413 33.885 10.0687 33.885 10.0976C33.885 16.3065 38.8515 21.339 44.979 21.339C47.199 21.339 49.266 20.6793 51 19.5409V23.6919C51 25.3714 49.6575 26.7317 48 26.7317Z" fill="#D1C4E9"/>
<path d="M22.5 46.4909H6C4.3425 46.4909 3 45.1305 3 43.451V32.8115C3 31.1319 4.3425 29.7716 6 29.7716H22.5C24.1575 29.7716 25.5 31.1319 25.5 32.8115V43.451C25.5 45.1305 24.1575 46.4909 22.5 46.4909Z" fill="#D1C4E9"/>
<path d="M48 46.4909H31.5C29.8425 46.4909 28.5 45.1305 28.5 43.451V32.8115C28.5 31.1319 29.8425 29.7716 31.5 29.7716H48C49.6575 29.7716 51 31.1319 51 32.8115V43.451C51 45.1305 49.6575 46.4909 48 46.4909Z" fill="#D1C4E9"/>
<path d="M45 17.6121C49.1421 17.6121 52.5 14.2096 52.5 10.0124C52.5 5.81527 49.1421 2.41278 45 2.41278C40.8579 2.41278 37.5 5.81527 37.5 10.0124C37.5 14.2096 40.8579 17.6121 45 17.6121Z" fill="#67047A"/>
<path d="M22.9286 66.25H6.42856C4.77106 66.25 3.42856 64.8897 3.42856 63.2101V52.5706C3.42856 50.8911 4.77106 49.5307 6.42856 49.5307H22.9286C24.5861 49.5307 25.9286 50.8911 25.9286 52.5706V63.2101C25.9286 64.8897 24.5861 66.25 22.9286 66.25Z" fill="#D1C4E9"/>
<path d="M48.4286 66.25H31.9286C30.2711 66.25 28.9286 64.8897 28.9286 63.2101V52.5706C28.9286 50.8911 30.2711 49.5307 31.9286 49.5307H48.4286C50.0861 49.5307 51.4286 50.8911 51.4286 52.5706V63.2101C51.4286 64.8897 50.0861 66.25 48.4286 66.25Z" fill="#D1C4E9"/>
</svg>
