<svg width="42" height="46" viewBox="0 0 42 46" fill="none" xmlns="http://www.w3.org/2000/svg">
<path d="M35.0244 8.56098C35.0244 12.7384 27.4067 16.122 18.0122 16.122C8.61768 16.122 1 12.7384 1 8.56098C1 4.38354 8.61768 1 18.0122 1C27.4067 1 35.0244 4.38354 35.0244 8.56098Z" fill="#D1C4E9"/>
<path d="M29.9756 41.061L32.8293 38.2073L35.6829 41.061L37.2195 39.5244L34.3658 36.6707L37.2195 33.8171L35.6829 32.2805L32.8293 35.1341L29.9756 32.2805L28.439 33.8171L31.2927 36.6707L28.439 39.5244L29.9756 41.061ZM27.3415 46C26.7378 46 26.221 45.7851 25.7911 45.3552C25.3613 44.9253 25.1463 44.4085 25.1463 43.8049V29.5366H24.0488V27.3415H29.5366V26.2439H36.1219V27.3415H41.6097V29.5366H40.5122V43.8049C40.5122 44.4085 40.2972 44.9253 39.8674 45.3552C39.4375 45.7851 38.9207 46 38.3171 46H27.3415ZM38.3171 29.5366H27.3415V43.8049H38.3171V29.5366Z" fill="#67047A"/>
<path d="M35.0244 8.56098C35.0244 12.7384 27.4067 16.122 18.0122 16.122C8.61768 16.122 1 12.7384 1 8.56098M35.0244 8.56098C35.0244 4.38354 27.4067 1 18.0122 1C8.61768 1 1 4.38354 1 8.56098M35.0244 8.56098V18.0122M1 8.56098V18.0122M1 18.0122C1 22.1896 8.61768 25.5732 18.0122 25.5732M1 18.0122V27.4634C1 31.6409 8.61768 35.0244 18.0122 35.0244" stroke="#D1C4E9" stroke-width="2" stroke-linecap="round" stroke-linejoin="round"/>
<path d="M1 17.4634V26.9146M1 26.9146C1 31.0921 8.61768 34.4756 18.0122 34.4756M1 26.9146V36.3658C1 40.5433 8.61768 43.9268 18.0122 43.9268" stroke="#D1C4E9" stroke-width="2" stroke-linecap="round" stroke-linejoin="round"/>
</svg>
