<svg width="48" height="48" viewBox="0 0 48 48" fill="none" xmlns="http://www.w3.org/2000/svg">
<path d="M10.84 0H6C4.4087 0 2.88258 0.632141 1.75736 1.75736C0.632141 2.88258 0 4.4087 0 6V9.2C0 10.7913 0.632141 12.3174 1.75736 13.4426C2.88258 14.5679 4.4087 15.2 6 15.2H10.84C12.4313 15.2 13.9574 14.5679 15.0826 13.4426C16.2079 12.3174 16.84 10.7913 16.84 9.2V6C16.84 4.4087 16.2079 2.88258 15.0826 1.75736C13.9574 0.632141 12.4313 0 10.84 0ZM9.23 10.4H7.63C6.88739 10.4 6.1752 10.105 5.6501 9.5799C5.125 9.0548 4.83 8.34261 4.83 7.6C4.83 6.85739 5.125 6.1452 5.6501 5.6201C6.1752 5.095 6.88739 4.8 7.63 4.8H9.23C9.97261 4.8 10.6848 5.095 11.2099 5.6201C11.735 6.1452 12.03 6.85739 12.03 7.6C12.03 8.34261 11.735 9.0548 11.2099 9.5799C10.6848 10.105 9.97261 10.4 9.23 10.4Z" fill="#D1C4E9"/>
<path d="M27.7 15.2H32.51C34.1013 15.2 35.6274 14.5679 36.7527 13.4426C37.8779 12.3174 38.51 10.7913 38.51 9.2V6C38.51 4.4087 37.8779 2.88258 36.7527 1.75736C35.6274 0.632141 34.1013 0 32.51 0H27.7C26.1087 0 24.5826 0.632141 23.4574 1.75736C22.3322 2.88258 21.7 4.4087 21.7 6V9.2C21.7 10.7913 22.3322 12.3174 23.4574 13.4426C24.5826 14.5679 26.1087 15.2 27.7 15.2ZM29.3 4.8H30.91C31.2777 4.8 31.6418 4.87242 31.9815 5.01314C32.3212 5.15385 32.6299 5.3601 32.8899 5.6201C33.1499 5.88011 33.3562 6.18877 33.4969 6.52849C33.6376 6.8682 33.71 7.2323 33.71 7.6C33.71 7.9677 33.6376 8.3318 33.4969 8.67151C33.3562 9.01123 33.1499 9.31989 32.8899 9.5799C32.6299 9.8399 32.3212 10.0461 31.9815 10.1869C31.6418 10.3276 31.2777 10.4 30.91 10.4H29.3C28.5574 10.4 27.8452 10.105 27.3201 9.5799C26.795 9.0548 26.5 8.34261 26.5 7.6C26.5 6.85739 26.795 6.1452 27.3201 5.6201C27.8452 5.095 28.5574 4.8 29.3 4.8Z" fill="#D1C4E9"/>
<path d="M10.84 20H6C4.4087 20 2.88258 20.6321 1.75736 21.7574C0.632141 22.8826 0 24.4087 0 26V29.2C0 30.7913 0.632141 32.3174 1.75736 33.4426C2.88258 34.5679 4.4087 35.2 6 35.2H10.84C12.4313 35.2 13.9574 34.5679 15.0826 33.4426C16.2079 32.3174 16.84 30.7913 16.84 29.2V26C16.84 24.4087 16.2079 22.8826 15.0826 21.7574C13.9574 20.6321 12.4313 20 10.84 20ZM9.23 30.4H7.63C6.88739 30.4 6.1752 30.105 5.6501 29.5799C5.125 29.0548 4.83 28.3426 4.83 27.6C4.83 26.8574 5.125 26.1452 5.6501 25.6201C6.1752 25.095 6.88739 24.8 7.63 24.8H9.23C9.97261 24.8 10.6848 25.095 11.2099 25.6201C11.735 26.1452 12.03 26.8574 12.03 27.6C12.03 28.3426 11.735 29.0548 11.2099 29.5799C10.6848 30.105 9.97261 30.4 9.23 30.4Z" fill="#D1C4E9"/>
<path d="M47.83 40.54L46.66 39.41C46.5837 39.3323 46.4926 39.2706 46.3922 39.2284C46.2918 39.1863 46.1839 39.1646 46.075 39.1646C45.9661 39.1646 45.8583 39.1863 45.7578 39.2284C45.6574 39.2706 45.5663 39.3323 45.49 39.41L43.49 41.33C43.3889 41.4301 43.2523 41.4863 43.11 41.4863C42.9677 41.4863 42.8311 41.4301 42.73 41.33C42.6294 41.2289 42.572 41.0926 42.57 40.95V32C42.5602 31.783 42.4697 31.5775 42.3161 31.4239C42.1625 31.2703 41.957 31.1797 41.74 31.17H40C39.7827 31.1817 39.5773 31.2727 39.4225 31.4256C39.2677 31.5785 39.1744 31.7829 39.16 32V40.9C39.1627 40.9696 39.1516 41.0391 39.1274 41.1044C39.1032 41.1697 39.0664 41.2296 39.019 41.2807C38.9717 41.3318 38.9147 41.373 38.8514 41.4021C38.788 41.4311 38.7196 41.4474 38.65 41.45C38.5735 41.4523 38.4974 41.4384 38.4267 41.4091C38.356 41.3797 38.2924 41.3358 38.24 41.28L36.24 39.36C36.1639 39.2838 36.0734 39.2233 35.9739 39.1821C35.8744 39.1409 35.7677 39.1196 35.66 39.1196C35.5523 39.1196 35.4456 39.1409 35.3461 39.1821C35.2466 39.2233 35.1562 39.2838 35.08 39.36L34 40.49C33.8635 40.6162 33.7795 40.7891 33.7647 40.9744C33.7499 41.1596 33.8053 41.3437 33.92 41.49C33.9441 41.5191 33.9709 41.5459 34 41.57L40.28 47.71C40.3562 47.7862 40.4466 47.8466 40.5461 47.8879C40.6456 47.9291 40.7523 47.9503 40.86 47.9503C40.9677 47.9503 41.0744 47.9291 41.1739 47.8879C41.2734 47.8466 41.3639 47.7862 41.44 47.71L47.77 41.57C47.9078 41.4373 47.9904 41.2576 48.0016 41.0667C48.0127 40.8758 47.9514 40.6877 47.83 40.54Z" fill="#67047A"/>
<path d="M34.63 28.65L35.63 27.52C35.7665 27.3938 35.8505 27.2209 35.8653 27.0356C35.8801 26.8503 35.8247 26.6662 35.71 26.52L35.63 26.44L29.35 20.3C29.2739 20.2238 29.1834 20.1633 29.0839 20.1221C28.9844 20.0809 28.8777 20.0596 28.77 20.0596C28.6623 20.0596 28.5556 20.0809 28.4561 20.1221C28.3566 20.1633 28.2662 20.2238 28.19 20.3L21.91 26.44C21.7735 26.5662 21.6895 26.7391 21.6747 26.9244C21.6599 27.1096 21.7153 27.2937 21.83 27.44L21.91 27.52L23.08 28.65C23.1562 28.7262 23.2466 28.7866 23.3461 28.8279C23.4456 28.8691 23.5523 28.8903 23.66 28.8903C23.7677 28.8903 23.8744 28.8691 23.9739 28.8279C24.0734 28.7866 24.1639 28.7262 24.24 28.65L26.24 26.73C26.2911 26.6786 26.3519 26.6378 26.4188 26.61C26.4857 26.5821 26.5575 26.5678 26.63 26.5678C26.7025 26.5678 26.7743 26.5821 26.8412 26.61C26.9081 26.6378 26.9689 26.6786 27.02 26.73C27.1023 26.8251 27.1515 26.9445 27.16 27.07V36C27.1722 36.2178 27.2649 36.4234 27.4201 36.5768C27.5753 36.7302 27.782 36.8204 28 36.83H29.68C29.8962 36.818 30.1005 36.7267 30.2536 36.5736C30.4067 36.4204 30.498 36.2162 30.51 36V27.1C30.5107 26.9937 30.5428 26.89 30.6022 26.8019C30.6616 26.7138 30.7456 26.6451 30.8438 26.6045C30.9421 26.564 31.0501 26.5533 31.1543 26.5738C31.2586 26.5943 31.3545 26.6452 31.43 26.72L33.43 28.64C33.5061 28.723 33.5984 28.7895 33.7012 28.8352C33.8041 28.881 33.9153 28.9051 34.0278 28.9061C34.1404 28.907 34.252 28.8847 34.3556 28.8407C34.4592 28.7966 34.5526 28.7317 34.63 28.65Z" fill="#67047A"/>
</svg>
