<svg width="63" height="77" viewBox="0 0 63 77" fill="none" xmlns="http://www.w3.org/2000/svg">
<path d="M26.25 30.1453H7C5.06625 30.1453 3.5 28.5583 3.5 26.5988V14.186C3.5 12.2266 5.06625 10.6395 7 10.6395H26.25C28.1838 10.6395 29.75 12.2266 29.75 14.186V26.5988C29.75 28.5583 28.1838 30.1453 26.25 30.1453Z" fill="#D1C4E9"/>
<path d="M56 53.1977H36.75C34.8162 53.1977 33.25 51.6106 33.25 49.6512V37.2384C33.25 35.2789 34.8162 33.6919 36.75 33.6919H56C57.9338 33.6919 59.5 35.2789 59.5 37.2384V49.6512C59.5 51.6106 57.9338 53.1977 56 53.1977Z" fill="#D1C4E9"/>
<path d="M56.75 30.5058H37.5C35.5662 30.5058 34 28.9188 34 26.9593V14.5465C34 12.5871 35.5662 11 37.5 11H56.75C58.6838 11 60.25 12.5871 60.25 14.5465V26.9593C60.25 28.9188 58.6838 30.5058 56.75 30.5058Z" fill="#D1C4E9"/>
<path d="M26.75 76.25H7.5C5.56625 76.25 4 74.663 4 72.7035V60.2907C4 58.3313 5.56625 56.7442 7.5 56.7442H26.75C28.6838 56.7442 30.25 58.3313 30.25 60.2907V72.7035C30.25 74.663 28.6838 76.25 26.75 76.25Z" fill="#D1C4E9"/>
<path d="M56.5 76.25H37.25C35.3162 76.25 33.75 74.663 33.75 72.7035V60.2907C33.75 58.3313 35.3162 56.7442 37.25 56.7442H56.5C58.4338 56.7442 60 58.3313 60 60.2907V72.7035C60 74.663 58.4338 76.25 56.5 76.25Z" fill="#D1C4E9"/>
<path fill-rule="evenodd" clip-rule="evenodd" d="M18.75 44.625H11.25C10.9044 44.625 10.625 44.3438 10.625 44C10.625 43.6562 10.9044 43.375 11.25 43.375H18.75C19.0956 43.375 19.375 43.6562 19.375 44C19.375 44.3438 19.0956 44.625 18.75 44.625ZM15 34C9.47688 34 5 38.475 5 44C5 49.525 9.47688 54 15 54C20.5231 54 25 49.525 25 44C25 38.475 20.5231 34 15 34Z" fill="#67047A"/>
</svg>
