<svg width="56" height="61" viewBox="0 0 56 61" fill="none" xmlns="http://www.w3.org/2000/svg">
<rect x="2" y="1" width="41" height="45" fill="#D1C4E9"/>
<rect x="11" y="11" width="40.5" height="45.5" fill="#D1C4E9"/>
<path fill-rule="evenodd" clip-rule="evenodd" d="M32.3822 33.0994H51.4008C53.9312 33.0994 56 35.1707 56 37.6981V55.728C56 58.2583 53.9277 60.3277 51.4008 60.3277H32.3822C29.8518 60.3277 27.7825 58.2583 27.7825 55.728V37.6981C27.7825 35.1707 29.8518 33.0994 32.3822 33.0994ZM10.0462 33.177C9.31271 33.177 8.701 32.5132 8.701 31.7101C8.701 30.8892 9.29455 30.2426 10.0462 30.2426H21.5426C22.2761 30.2426 22.8878 30.9069 22.8878 31.7101C22.8878 32.5309 22.2938 33.177 21.5426 33.177H10.0462ZM43.1024 8.9283H47.9245C48.8685 8.9283 49.7424 9.31271 50.3532 9.94112C50.9821 10.57 51.3665 11.4262 51.3665 12.3698V28.6608H48.3958V12.3698C48.3958 12.2299 48.3432 12.1081 48.2563 12.0208C48.1685 11.9334 48.0467 11.8808 47.9068 11.8808H43.0852V28.6613H40.1327V3.44201C40.1327 3.30209 40.0802 3.17984 39.9933 3.09295C39.9054 3.00556 39.7827 2.95303 39.6432 2.95303H3.42482C3.28491 2.95303 3.16217 3.00507 3.07527 3.09295C2.98739 3.18033 2.93535 3.30209 2.93535 3.44201V44.3612C2.93535 44.5011 2.98788 44.6229 3.07527 44.7103C3.16266 44.7976 3.28491 44.8502 3.42433 44.8502H22.5078V47.8027H11.1994V53.2885C11.1994 53.4284 11.2519 53.5512 11.3393 53.6386C11.4262 53.725 11.549 53.7785 11.6884 53.7785L22.5078 53.7775V56.73H11.7061C10.763 56.73 9.88908 56.3456 9.27786 55.7167C8.64896 55.0888 8.26406 54.2326 8.26406 53.288V47.8027H3.44201C2.49841 47.8027 1.62502 47.4173 1.0138 46.7894C0.384409 46.16 0 45.3038 0 44.3602V3.44201C0 2.49841 0.384409 1.62502 1.01331 1.01331C1.64221 0.384409 2.49841 0 3.44201 0H39.6609C40.604 0 41.4779 0.384409 42.0896 1.01282C42.718 1.64221 43.1024 2.49792 43.1024 3.44152V8.9283ZM10.029 14.0641C9.29504 14.0641 8.68381 13.3998 8.68381 12.5961C8.68381 11.7753 9.27786 11.1287 10.029 11.1287H33.0214C33.7553 11.1287 34.3661 11.793 34.3661 12.5961C34.3661 13.417 33.773 14.0641 33.0214 14.0641H10.029ZM10.029 23.6213C9.29504 23.6213 8.68381 22.957 8.68381 22.1538C8.68381 21.333 9.27786 20.6864 10.029 20.6864H33.0214C33.7553 20.6864 34.3661 21.3502 34.3661 22.1538C34.3661 22.9747 33.773 23.6213 33.0214 23.6213H10.029ZM36.265 48.4989C35.2802 48.4989 34.4809 47.7001 34.4809 46.7143C34.4809 45.7295 35.2802 44.9307 36.265 44.9307C43.0847 44.9307 40.6948 44.9307 47.5175 44.9307C48.5028 44.9307 49.302 45.7295 49.302 46.7143C49.302 47.7001 48.5028 48.4989 47.5175 48.4989C40.6978 48.4989 43.0882 48.4989 36.265 48.4989Z" fill="#67047A"/>
</svg>
