<svg width="56" height="54" viewBox="0 0 56 54" fill="none" xmlns="http://www.w3.org/2000/svg">
<rect y="0.584625" width="48.6769" height="46.5231" rx="11" fill="#D1C4E9"/>
<path d="M33.7288 0.584625V6.02934H8.71817C6.92714 6.03389 5.46424 7.49335 5.46014 9.27917V17.3424H0V9.27962C0 8.79329 0.0405602 8.32967 0.118491 7.85243C0.533207 5.41165 1.93686 3.30721 4.01956 1.96228C5.44601 1.05324 7.0274 0.59417 8.71817 0.58508L33.7288 0.584625ZM23.4201 31.2721C22.7178 31.503 21.9905 31.7248 21.2795 31.9566C20.5768 32.1875 19.8659 32.4261 19.1385 32.657C17.4523 33.2011 16.5267 33.5065 16.328 33.5634C16.1298 33.6211 16.2537 32.8379 16.6753 31.2135L18.0142 26.1028L26.4371 17.3151L31.8184 22.4835L23.4201 31.2721ZM31.7937 13.5226C31.5372 13.2917 31.2482 13.1599 30.926 13.1762C30.6038 13.1762 30.3144 13.2999 30.0743 13.5553L28.157 15.542L33.5374 20.7281L35.4715 18.7087C35.7039 18.4773 35.7946 18.1646 35.7946 17.8428C35.7946 17.5215 35.6702 17.2083 35.4305 16.9942L31.7937 13.5226ZM48.6992 46.7277V54H43.2358V46.7277H36.2763V41.2784H43.2358V32.2743H48.6951V41.2789H56V46.7236H48.6992V46.7277ZM0 22.788H5.45968V38.0286C5.46424 39.2508 6.15239 40.3553 7.23658 40.9189L4.73962 45.7641C2.93036 44.8273 1.52169 43.3283 0.710943 41.4639C0.236981 40.3594 0.00455733 39.2276 0 38.0327L0 22.788ZM11.3432 46.7277V41.2784H30.8162V46.7231H11.3432V46.7277ZM48.6951 26.8287H43.2358V9.27962C43.2304 7.49335 41.7679 6.03434 39.9773 6.02979H39.1889V0.584625H39.9773C40.465 0.584625 40.9298 0.625532 41.4079 0.702801C43.8556 1.11642 45.9652 2.51634 47.3146 4.59351C48.2261 6.01616 48.6864 7.59335 48.6951 9.27962V26.8287Z" fill="#67047A"/>
</svg>
