<svg width="65" height="59" viewBox="0 0 65 59" fill="none" xmlns="http://www.w3.org/2000/svg">
<path d="M0.624374 9.15814C0.624374 10.7206 1.87437 11.9706 3.43687 11.9706L17.9681 11.9706C19.5306 11.9706 20.7806 10.7206 20.7806 9.15814C20.7806 7.59564 19.5306 6.34564 17.9681 6.34564L3.43687 6.34564C1.87437 6.34564 0.624374 7.59564 0.624374 9.15814Z" fill="#D1C4E9"/>
<path d="M44.2188 29.5012C44.2188 31.0637 45.4687 32.3138 47.0312 32.3138H61.5625C63.125 32.3138 64.375 31.0637 64.375 29.5012C64.375 27.9387 63.125 26.6888 61.5625 26.6888H47.0312C45.5 26.6888 44.2188 27.9387 44.2188 29.5012Z" fill="#67047A"/>
<path d="M0.624374 49.8443C0.624374 51.4068 1.87437 52.6568 3.43687 52.6568H17.9681C19.5306 52.6568 20.7806 51.4068 20.7806 49.8443C20.7806 48.2818 19.5306 47.0318 17.9681 47.0318H3.43687C1.87437 47.0318 0.624374 48.313 0.624374 49.8443Z" fill="#D1C4E9"/>
<path d="M26.7809 44.0298V55.6548C26.7809 57.2173 28.0309 58.4673 29.5934 58.4673C31.1559 58.4673 32.4059 57.2173 32.4059 55.6548V52.6548H61.5622C63.1247 52.6548 64.3747 51.4048 64.3747 49.8423C64.3747 48.2798 63.1247 47.0298 61.5622 47.0298H32.4059V44.0298C32.4059 42.4673 31.1559 41.2173 29.5934 41.2173C28.0309 41.2173 26.7809 42.4985 26.7809 44.0298Z" fill="#D1C4E9"/>
<path d="M26.7809 3.34375V14.9688C26.7809 16.5313 28.0309 17.7812 29.5934 17.7812C31.1559 17.7812 32.4059 16.5313 32.4059 14.9688V11.9687L61.5622 11.9687C63.1247 11.9687 64.3747 10.7188 64.3747 9.15625C64.3747 7.59375 63.1247 6.34375 61.5622 6.34375L32.4059 6.34375V3.34375C32.4059 1.78125 31.1559 0.53125 29.5934 0.53125C28.0309 0.53125 26.7809 1.78125 26.7809 3.34375Z" fill="#D1C4E9"/>
<path d="M32.5931 23.6869V26.6869H3.43687C1.87437 26.6869 0.624374 27.9369 0.624374 29.4994C0.624374 31.0619 1.87437 32.3119 3.43687 32.3119H32.5931V35.3119C32.5931 36.8743 33.8431 38.1243 35.4056 38.1243C36.9681 38.1243 38.2181 36.8743 38.2181 35.3119V23.6869C38.2181 22.1244 36.9681 20.8744 35.4056 20.8744C33.8431 20.8744 32.5931 22.1244 32.5931 23.6869Z" fill="#67047A"/>
</svg>
