<svg width="48" height="48" viewBox="0 0 48 48" fill="none" xmlns="http://www.w3.org/2000/svg">
<g clip-path="url(#clip0_30_262)">
<path fill-rule="evenodd" clip-rule="evenodd" d="M4 16H31H44L44.0007 25.6198C41.6649 23.3779 38.4934 22 35 22C33.6041 22 32.2595 22.22 30.9991 22.6273C28.9988 23.2736 27.2105 24.3916 25.7653 25.8501L21.4142 21.5L20 22.9142L24.1213 27.0355L20 31.1569L21.4142 32.5711L22.4734 31.5113C22.1649 32.6215 22 33.7915 22 35C22 36.7721 22.3546 38.4613 22.9966 40.0007L6 40C4.89543 40 4 39.1046 4 38V16ZM13.5355 21.5L8 27.0355L13.5355 32.5711L14.9497 31.1569L10.8284 27.0355L14.9497 22.9142L13.5355 21.5Z" fill="#D1C4E9"/>
<path opacity="0.8" fill-rule="evenodd" clip-rule="evenodd" d="M6 8H42C43.1046 8 44 8.89543 44 10V16H4V10C4 8.89543 4.89543 8 6 8Z" fill="#67047A"/>
<g filter="url(#filter0_d_30_262)">
<path d="M35 48C42.1797 48 48 42.1797 48 35C48 27.8203 42.1797 22 35 22C27.8203 22 22 27.8203 22 35C22 42.1797 27.8203 48 35 48Z" fill="#D1C4E9"/>
</g>
<path d="M34.25 28.5C37.4256 28.5 40 31.0744 40 34.25C40 35.4285 39.6438 36.5532 38.9947 37.4991L38.952 37.558L42.3132 40.9206L40.5455 42.6882L37.099 39.243L36.97 39.3172C36.2258 39.7175 35.3987 39.9503 34.538 39.9929L34.25 40C31.0744 40 28.5 37.4256 28.5 34.25C28.5 31.0744 31.0744 28.5 34.25 28.5ZM34.25 31C32.4551 31 31 32.4551 31 34.25C31 36.0449 32.4551 37.5 34.25 37.5C36.0449 37.5 37.5 36.0449 37.5 34.25C37.5 32.4551 36.0449 31 34.25 31Z" fill="#67047A"/>
<path fill-rule="evenodd" clip-rule="evenodd" d="M13.5355 21.5L14.9497 22.9142L10.8284 27.0355L14.9497 31.1569L13.5355 32.5711L8 27.0355L13.5355 21.5ZM21.4142 21.5L25.7642 25.8512C24.2251 27.4048 23.0753 29.3447 22.4731 31.5125L21.4142 32.5711L20 31.1569L24.1213 27.0355L20 22.9142L21.4142 21.5Z" fill="#67047A"/>
</g>
<defs>
<filter id="filter0_d_30_262" x="18" y="18" width="34" height="34" filterUnits="userSpaceOnUse" color-interpolation-filters="sRGB">
<feFlood flood-opacity="0" result="BackgroundImageFix"/>
<feColorMatrix in="SourceAlpha" type="matrix" values="0 0 0 0 0 0 0 0 0 0 0 0 0 0 0 0 0 0 127 0" result="hardAlpha"/>
<feOffset/>
<feGaussianBlur stdDeviation="2"/>
<feComposite in2="hardAlpha" operator="out"/>
<feColorMatrix type="matrix" values="0 0 0 0 0 0 0 0 0 0 0 0 0 0 0 0 0 0 0.09 0"/>
<feBlend mode="normal" in2="BackgroundImageFix" result="effect1_dropShadow_30_262"/>
<feBlend mode="normal" in="SourceGraphic" in2="effect1_dropShadow_30_262" result="shape"/>
</filter>
<clipPath id="clip0_30_262">
<rect width="48" height="48" fill="white"/>
</clipPath>
</defs>
</svg>
