<svg width="53" height="53" viewBox="0 0 53 53" fill="none" xmlns="http://www.w3.org/2000/svg">
<path d="M13.25 15.9H5.3C2.385 15.9 0 13.515 0 10.6V5.3C0 2.385 2.385 0 5.3 0H13.25C16.165 0 18.55 2.385 18.55 5.3V10.6C18.55 13.515 16.165 15.9 13.25 15.9Z" fill="#67047A"/>
<path d="M49.82 13.25H40.28C38.531 13.25 37.1 11.819 37.1 10.07V5.83005C37.1 4.08105 38.531 2.65002 40.28 2.65002H49.82C51.569 2.65002 53 4.08105 53 5.83005V10.07C53 11.819 51.569 13.25 49.82 13.25Z" fill="#67047A"/>
<path d="M49.82 33.125H40.28C38.531 33.125 37.1 31.694 37.1 29.945V25.705C37.1 23.956 38.531 22.525 40.28 22.525H49.82C51.569 22.525 53 23.956 53 25.705V29.945C53 31.694 51.569 33.125 49.82 33.125Z" fill="#67047A"/>
<path d="M37.1 29.8125C38.1865 29.8125 39.0875 28.9115 39.0875 27.825C39.0875 26.7385 38.1865 25.8375 37.1 25.8375H29.8125V9.93752H37.1C38.1865 9.93752 39.0875 9.03652 39.0875 7.95002C39.0875 6.86352 38.1865 5.96252 37.1 5.96252H18.55C17.4635 5.96252 16.5625 6.86352 16.5625 7.95002C16.5625 9.03652 17.4635 9.93752 18.55 9.93752H25.8375V42.4C25.8375 46.428 29.097 49.6875 33.125 49.6875H37.1C38.1865 49.6875 39.0875 48.7865 39.0875 47.7C39.0875 46.6135 38.1865 45.7125 37.1 45.7125H33.125C31.2965 45.7125 29.8125 44.2285 29.8125 42.4V29.8125H37.1Z" fill="#D1C4E9"/>
<path d="M49.82 53H40.28C38.531 53 37.1 51.569 37.1 49.82V45.58C37.1 43.831 38.531 42.4 40.28 42.4H49.82C51.569 42.4 53 43.831 53 45.58V49.82C53 51.569 51.569 53 49.82 53Z" fill="#67047A"/>
</svg>
