<svg width="74" height="76" viewBox="0 0 74 76" fill="none" xmlns="http://www.w3.org/2000/svg">
<path d="M55.6763 0.597351H4.36998C2.35438 0.597351 0.705246 2.24648 0.705246 4.26209V15.2563C0.705246 17.2719 2.35438 18.921 4.36998 18.921H55.6763C57.6919 18.921 59.341 17.2719 59.341 15.2563V4.26209C59.341 2.24648 57.6919 0.597351 55.6763 0.597351ZM55.6763 22.5858H4.36998C2.35438 22.5858 0.705246 24.2349 0.705246 26.2505V37.2447C0.705246 39.2603 2.35438 40.9095 4.36998 40.9095H50.3624C52.7445 38.5274 59.341 39.2603 59.341 37.2447V26.2505C59.341 24.2349 57.6919 22.5858 55.6763 22.5858ZM49.0798 44.5742H4.36998C2.35438 44.5742 0.705246 46.2233 0.705246 48.2389V59.2332C0.705246 61.2488 2.35438 62.8979 4.36998 62.8979H55.6763C57.6919 62.8979 59.341 61.2488 59.341 59.2332V54.8355C59.341 49.1551 54.7601 44.5742 49.0798 44.5742Z" fill="#D1C4E9"/>
<path d="M64.8381 72.0598L61.1734 75.7245H57.5087L53.8439 72.0598V52.6367H64.8381V61.0656L63.0058 62.8979L64.8381 64.7303V66.5627L63.0058 68.395L64.8381 70.2274V72.0598Z" fill="#67047A"/>
<path d="M73.0838 39.9933C72.5341 38.3441 71.2514 37.0615 69.4191 36.695C67.037 36.1453 63.3723 35.4124 59.341 35.4124C55.3098 35.4124 51.6451 36.1453 49.263 36.5118C47.4307 36.8782 46.148 38.1609 45.5983 39.81C45.2318 41.6424 44.6821 43.8413 44.6821 46.4066C44.6821 48.9719 45.2318 51.1707 45.5983 52.8199C46.148 54.469 47.4306 55.7516 49.263 56.1181C51.6451 56.6678 55.1266 57.2175 59.341 57.2175C63.5555 57.2175 67.037 56.4846 69.4191 56.1181C71.2514 55.7516 72.5341 54.469 73.0838 52.8199C73.6335 51.1707 74 48.9719 74 46.4066C74 43.8413 73.4503 41.6424 73.0838 39.9933ZM64.6549 44.5742H54.2104C53.111 44.5742 52.1948 43.658 52.1948 42.5586V39.9933C52.1948 39.4436 55.4931 38.8939 59.5243 38.8939C63.5555 38.8939 66.8538 39.4436 66.8538 39.9933V42.5586C66.6705 43.658 65.7543 44.5742 64.6549 44.5742Z" fill="#67047A"/>
<path d="M57.5087 55.7516H59.341V75.7245H57.5087V55.7516Z" fill="#B397D3"/>
</svg>
