<svg width="66" height="66" viewBox="0 0 66 66" fill="none" xmlns="http://www.w3.org/2000/svg">
<path d="M57.42 4.752H30.228C29.172 4.752 28.27 5.126 27.522 5.874C26.774 6.622 26.4 7.524 26.4 8.58V9.9C26.4 11.88 25.905 13.706 24.915 15.378C23.925 17.05 22.594 18.381 20.922 19.371C19.25 20.361 17.424 20.856 15.444 20.856H8.58001C7.52401 20.856 6.62201 21.23 5.87401 21.978C5.12601 22.726 4.75201 23.628 4.75201 24.684V57.42C4.75201 58.476 5.12601 59.378 5.87401 60.126C6.62201 60.874 7.52401 61.248 8.58001 61.248H41.316C42.372 61.248 43.274 60.874 44.022 60.126C44.77 59.378 45.144 58.476 45.144 57.42V50.556C45.144 48.576 45.628 46.75 46.596 45.078C47.564 43.406 48.895 42.075 50.589 41.085C52.283 40.095 54.12 39.6 56.1 39.6H57.354C58.454 39.6 59.378 39.226 60.126 38.478C60.874 37.73 61.248 36.828 61.248 35.772V8.58C61.248 7.524 60.874 6.622 60.126 5.874C59.378 5.126 58.476 4.752 57.42 4.752ZM57.684 33.858C57.684 34.474 57.475 35.002 57.057 35.442C56.639 35.882 56.122 36.102 55.506 36.102H44.088C43.472 36.102 42.944 36.311 42.504 36.729C42.064 37.147 41.844 37.664 41.844 38.28V55.77C41.844 56.386 41.635 56.903 41.217 57.321C40.799 57.739 40.282 57.948 39.666 57.948H10.23C9.61402 57.948 9.09701 57.739 8.67901 57.321C8.26101 56.903 8.05201 56.386 8.05201 55.77V26.334C8.05201 25.718 8.26101 25.201 8.67901 24.783C9.09701 24.365 9.61402 24.156 10.23 24.156H21.582C20.57 25.476 19.734 26.884 19.074 28.38H13.926C13.486 28.38 13.101 28.545 12.771 28.875C12.441 29.205 12.276 29.59 12.276 30.03V52.074C12.276 52.514 12.441 52.899 12.771 53.229C13.101 53.559 13.486 53.724 13.926 53.724H35.97C36.41 53.724 36.795 53.559 37.125 53.229C37.455 52.899 37.62 52.514 37.62 52.074V35.904C37.62 34.848 37.994 33.946 38.742 33.198C39.49 32.45 40.392 32.076 41.448 32.076H52.734C52.998 32.076 53.229 31.988 53.427 31.812C53.625 31.636 53.724 31.416 53.724 31.152V13.266C53.724 13.002 53.625 12.771 53.427 12.573C53.229 12.375 52.998 12.276 52.734 12.276H34.848C34.584 12.276 34.364 12.375 34.188 12.573C34.012 12.771 33.924 13.002 33.924 13.266V17.028C32.56 17.204 31.218 17.534 29.898 18.018V10.494C29.898 9.878 30.118 9.361 30.558 8.943C30.998 8.525 31.504 8.316 32.076 8.316H55.506C56.122 8.316 56.639 8.525 57.057 8.943C57.475 9.361 57.684 9.878 57.684 10.494V33.858Z" fill="#D1C4E9"/>
<path d="M37.125 22.803C39.655 21.813 42.35 21.56 45.21 22.044C42.438 20.68 39.622 19.998 36.762 19.998C34.034 19.954 31.482 20.559 29.106 21.813C26.73 23.067 24.794 24.838 23.298 27.126C21.758 29.546 20.834 32.34 20.526 35.508H15.708L24.948 44.88L34.188 35.508H29.37C29.106 32.516 29.722 29.876 31.218 27.588C32.626 25.388 34.595 23.793 37.125 22.803Z" fill="#D1C4E9"/>
<path d="M37.125 25.803C39.655 24.813 42.35 24.56 45.21 25.044C42.438 23.68 39.622 22.998 36.762 22.998C34.034 22.954 31.482 23.559 29.106 24.813C26.73 26.067 24.794 27.838 23.298 30.126C21.758 32.546 20.834 35.34 20.526 38.508H15.708L24.948 47.88L34.188 38.508H29.37C29.106 35.516 29.722 32.876 31.218 30.588C32.626 28.388 34.595 26.793 37.125 25.803Z" fill="#67047A"/>
</svg>
