<svg width="76" height="67" viewBox="0 0 76 67" fill="none" xmlns="http://www.w3.org/2000/svg">
<path d="M27.9132 7.73955H48.0891C50.2275 7.73955 51.9594 6.00538 51.9594 3.86884C51.9594 1.73061 50.2275 -0.0035553 48.0891 -0.0035553H27.9132C25.775 -0.0035553 24.0408 1.73061 24.0408 3.86884C24.0408 6.00538 25.775 7.73955 27.9132 7.73955Z" fill="#D1C4E9"/>
<path d="M72.1269 58.6109H51.9494C49.8136 58.6109 48.077 60.3451 48.077 62.4809C48.077 64.6199 49.8136 66.354 51.9494 66.354H72.1269C74.2678 66.354 76 64.6199 76 62.4809C76.0002 60.3453 74.268 58.6109 72.1269 58.6109Z" fill="#67047A"/>
<path d="M24.0509 58.6109H3.87239C1.73662 58.6109 0 60.3453 0 62.4809C0 64.6199 1.73662 66.354 3.87239 66.354H24.0508C26.1896 66.354 27.9231 64.6199 27.9231 62.4809C27.9233 60.3453 26.1896 58.6109 24.0509 58.6109Z" fill="#67047A"/>
<path d="M18.4511 36.6368H57.5462C58.2443 36.6368 58.8145 37.2069 58.8145 37.9051V47.0838H51.9494C49.8136 47.0838 48.077 48.8151 48.077 50.9564C48.077 53.0929 49.8136 54.8263 51.9494 54.8263H72.1268C74.2678 54.8263 76 53.0931 76 50.9564C76 48.8151 74.2678 47.0838 72.1268 47.0838H65.2672V37.9051C65.2672 33.6472 61.8039 30.184 57.5462 30.184H41.2241V19.2665H48.0891C50.2275 19.2665 51.9594 17.5346 51.9594 15.3934C51.9594 13.2574 50.2275 11.5231 48.0891 11.5231H27.9132C25.775 11.5231 24.0408 13.2573 24.0408 15.3934C24.0408 17.5346 25.775 19.2665 27.9132 19.2665H34.7714V30.184H18.4511C14.1962 30.184 10.7308 33.6472 10.7308 37.9051V47.0838H3.87239C1.73662 47.0838 0 48.8151 0 50.9565C0 53.0931 1.73662 54.8265 3.87239 54.8265H24.0508C26.1896 54.8265 27.9231 53.0932 27.9231 50.9565C27.9231 48.8152 26.1896 47.084 24.0508 47.084H17.1835V37.9052C17.1836 37.2069 17.7528 36.6368 18.4511 36.6368Z" fill="#D1C4E9"/>
</svg>
