<svg width="48" height="48" viewBox="0 0 48 48" fill="none" xmlns="http://www.w3.org/2000/svg">
<g clip-path="url(#clip0_30_254)">
<rect x="4" y="15" width="42" height="26" fill="#67047A"/>
<path d="M44 4H4C3.46957 4 2.96086 4.21071 2.58579 4.58579C2.21071 4.96086 2 5.46957 2 6V10H46V6C46 5.46957 45.7893 4.96086 45.4142 4.58579C45.0391 4.21071 44.5304 4 44 4ZM2 14V42C2 42.5304 2.21071 43.0391 2.58579 43.4142C2.96086 43.7893 3.46957 44 4 44H44C44.5304 44 45.0391 43.7893 45.4142 43.4142C45.7893 43.0391 46 42.5304 46 42V14H2ZM12 37C11.6044 37 11.2178 36.8827 10.8889 36.6629C10.56 36.4432 10.3036 36.1308 10.1522 35.7654C10.0009 35.3999 9.96126 34.9978 10.0384 34.6098C10.1156 34.2219 10.3061 33.8655 10.5858 33.5858C10.8655 33.3061 11.2219 33.1156 11.6098 33.0384C11.9978 32.9613 12.3999 33.0009 12.7654 33.1522C13.1308 33.3036 13.4432 33.56 13.6629 33.8889C13.8827 34.2178 14 34.6044 14 35C14 35.5304 13.7893 36.0391 13.4142 36.4142C13.0391 36.7893 12.5304 37 12 37ZM12 30C11.6044 30 11.2178 29.8827 10.8889 29.6629C10.56 29.4432 10.3036 29.1308 10.1522 28.7654C10.0009 28.3999 9.96126 27.9978 10.0384 27.6098C10.1156 27.2219 10.3061 26.8655 10.5858 26.5858C10.8655 26.3061 11.2219 26.1156 11.6098 26.0384C11.9978 25.9613 12.3999 26.0009 12.7654 26.1522C13.1308 26.3036 13.4432 26.56 13.6629 26.8889C13.8827 27.2178 14 27.6044 14 28C14 28.5304 13.7893 29.0391 13.4142 29.4142C13.0391 29.7893 12.5304 30 12 30ZM12 23C11.6044 23 11.2178 22.8827 10.8889 22.6629C10.56 22.4432 10.3036 22.1308 10.1522 21.7654C10.0009 21.3999 9.96126 20.9978 10.0384 20.6098C10.1156 20.2219 10.3061 19.8655 10.5858 19.5858C10.8655 19.3061 11.2219 19.1156 11.6098 19.0384C11.9978 18.9613 12.3999 19.0009 12.7654 19.1522C13.1308 19.3036 13.4432 19.56 13.6629 19.8889C13.8827 20.2178 14 20.6044 14 21C14 21.5304 13.7893 22.0391 13.4142 22.4142C13.0391 22.7893 12.5304 23 12 23ZM36 37H20C19.4696 37 18.9609 36.7893 18.5858 36.4142C18.2107 36.0391 18 35.5304 18 35C18 34.4696 18.2107 33.9609 18.5858 33.5858C18.9609 33.2107 19.4696 33 20 33H36C36.5304 33 37.0391 33.2107 37.4142 33.5858C37.7893 33.9609 38 34.4696 38 35C38 35.5304 37.7893 36.0391 37.4142 36.4142C37.0391 36.7893 36.5304 37 36 37ZM36 30H20C19.4696 30 18.9609 29.7893 18.5858 29.4142C18.2107 29.0391 18 28.5304 18 28C18 27.4696 18.2107 26.9609 18.5858 26.5858C18.9609 26.2107 19.4696 26 20 26H36C36.5304 26 37.0391 26.2107 37.4142 26.5858C37.7893 26.9609 38 27.4696 38 28C38 28.5304 37.7893 29.0391 37.4142 29.4142C37.0391 29.7893 36.5304 30 36 30ZM36 23H20C19.4696 23 18.9609 22.7893 18.5858 22.4142C18.2107 22.0391 18 21.5304 18 21C18 20.4696 18.2107 19.9609 18.5858 19.5858C18.9609 19.2107 19.4696 19 20 19H36C36.5304 19 37.0391 19.2107 37.4142 19.5858C37.7893 19.9609 38 20.4696 38 21C38 21.5304 37.7893 22.0391 37.4142 22.4142C37.0391 22.7893 36.5304 23 36 23Z" fill="#D1C4E9"/>
</g>
<defs>
<clipPath id="clip0_30_254">
<rect width="48" height="48" fill="white"/>
</clipPath>
</defs>
</svg>
