<svg width="76" height="76" viewBox="0 0 76 76" fill="none" xmlns="http://www.w3.org/2000/svg">
<path d="M60.1667 12.6667H28.5C26.7511 12.6667 25.3333 14.0844 25.3333 15.8333V22.1667C25.3333 23.9156 26.7511 25.3333 28.5 25.3333H60.1667C61.9156 25.3333 63.3333 23.9156 63.3333 22.1667V15.8333C63.3333 14.0844 61.9156 12.6667 60.1667 12.6667Z" fill="#D1C4E9"/>
<path d="M22.1667 25.3333H15.8333C14.0844 25.3333 12.6667 26.7511 12.6667 28.5V60.1667C12.6667 61.9156 14.0844 63.3333 15.8333 63.3333H22.1667C23.9156 63.3333 25.3333 61.9156 25.3333 60.1667V28.5C25.3333 26.7511 23.9156 25.3333 22.1667 25.3333Z" fill="#D1C4E9"/>
<path d="M58.5723 31.6667L49.856 40.3813L52.763 43.2867L56.5187 39.5311V52.25C56.5188 53.3373 56.1046 54.3838 55.3605 55.1765C54.6163 55.9692 53.598 56.4486 52.5128 56.5171L52.2437 56.525L39.5105 56.5266C40.3972 55.6399 41.6559 54.3907 43.2883 52.7772L40.3829 49.8718L31.6667 58.5881L40.3813 67.3027L43.2868 64.3973L39.5343 60.6417H52.2421C54.4677 60.6417 56.6021 59.7575 58.1759 58.1838C59.7496 56.6101 60.6338 54.4756 60.6338 52.25V39.539L64.3831 43.2883L67.2885 40.3829L58.5723 31.6667Z" fill="#67047A"/>
</svg>
