<svg width="64" height="56" viewBox="0 0 64 56" fill="none" xmlns="http://www.w3.org/2000/svg">
<path d="M34.4608 54.1579L34.4144 35.2756L39.8101 40.5711C40.1852 40.9393 40.6539 41.1239 41.1234 41.1239C41.5921 41.1239 42.0616 40.9393 42.4367 40.5711C43.1878 39.8345 43.1878 38.6834 42.4367 37.9461L33.8049 29.5183C33.1011 28.8272 31.9286 28.8272 31.1775 29.5183L22.5457 37.9461C21.8419 38.6826 21.7947 39.8345 22.5457 40.5711C23.296 41.2621 24.4693 41.3076 25.2196 40.5711L30.6616 35.2292L30.708 54.1579C30.708 55.1708 31.5526 56 32.5844 56C33.6161 56 34.4608 55.1708 34.4608 54.1579Z" fill="#67047A"/>
<rect x="3" y="3" width="61" height="11" fill="#67047A"/>
<path d="M64 2.7825V49.1825C64 50.7125 62.7475 52.1738 61.2175 52.1738H44.1037C42.5737 52.1738 41.3213 50.9213 41.3213 49.3913C41.3213 47.8613 42.5737 46.6087 44.1037 46.6087H58.435V16.6963H5.565V46.6087H20.1038C21.6338 46.6087 22.8862 47.8613 22.8862 49.3913C22.8862 50.9213 21.6338 52.1738 20.1038 52.1738H2.7825C1.2525 52.1738 0 50.7137 0 49.1825V2.7825C0 1.2525 1.2525 0 2.7825 0H61.2175C62.7475 0 64 1.2525 64 2.7825ZM27.8263 11.8263H34.7825V5.565H27.8263V11.8263ZM23.6525 5.565H16.6963V11.8263H23.6525V5.565ZM5.565 11.8263H12.5212V5.565H5.565V11.8263ZM58.435 11.8263V5.565H38.9562V11.8263H58.435Z" fill="#D1C4E9"/>
</svg>
