<svg width="63" height="77" viewBox="0 0 63 77" fill="none" xmlns="http://www.w3.org/2000/svg">
<path d="M26.25 30.1454H7C5.06625 30.1454 3.5 28.5583 3.5 26.5988V14.1861C3.5 12.2266 5.06625 10.6395 7 10.6395H26.25C28.1838 10.6395 29.75 12.2266 29.75 14.1861V26.5988C29.75 28.5583 28.1838 30.1454 26.25 30.1454Z" fill="#D1C4E9"/>
<path d="M57 53.1977H37.75C35.8162 53.1977 34.25 51.6106 34.25 49.6512V37.2384C34.25 35.2789 35.8162 33.6919 37.75 33.6919H57C58.9338 33.6919 60.5 35.2789 60.5 37.2384V49.6512C60.5 51.6106 58.9338 53.1977 57 53.1977Z" fill="#D1C4E9"/>
<path d="M56.75 30.5058H37.5C35.5662 30.5058 34 28.9188 34 26.9593V14.5465C34 12.5871 35.5662 11 37.5 11H56.75C58.6838 11 60.25 12.5871 60.25 14.5465V26.9593C60.25 28.9188 58.6838 30.5058 56.75 30.5058Z" fill="#D1C4E9"/>
<path d="M26.75 76.25H7.5C5.56625 76.25 4 74.6629 4 72.7035V60.2907C4 58.3313 5.56625 56.7442 7.5 56.7442H26.75C28.6838 56.7442 30.25 58.3313 30.25 60.2907V72.7035C30.25 74.6629 28.6838 76.25 26.75 76.25Z" fill="#D1C4E9"/>
<path d="M56.5 76.25H37.25C35.3162 76.25 33.75 74.6629 33.75 72.7035V60.2907C33.75 58.3313 35.3162 56.7442 37.25 56.7442H56.5C58.4338 56.7442 60 58.3313 60 60.2907V72.7035C60 74.6629 58.4338 76.25 56.5 76.25Z" fill="#D1C4E9"/>
<path d="M19.226 52.5321C19.226 53.1255 19.577 53.662 20.1166 53.8885C20.2954 53.9636 20.4825 54 20.669 54C21.0458 54 21.415 53.8511 21.6901 53.5702L29.5762 45.5388C29.8468 45.2632 30 44.8897 30 44.5007C30 44.1102 29.8468 43.7367 29.5762 43.4611L21.6901 35.4313C21.4134 35.149 21.0443 35 20.669 35C20.4824 35 20.2953 35.0363 20.1166 35.1112C19.577 35.3395 19.226 35.8759 19.226 36.4693V38.8327H6.44325C5.64742 38.8327 5 39.4901 5 40.3021V48.6993C5 49.5111 5.64732 50.1689 6.44325 50.1689H19.226V52.5321Z" fill="#67047A"/>
</svg>
