<svg width="63" height="59" viewBox="0 0 63 59" fill="none" xmlns="http://www.w3.org/2000/svg">
<g clip-path="url(#clip0_30_233)">
<path fill-rule="evenodd" clip-rule="evenodd" d="M40.779 58.2971V29.4566C40.7445 29.284 40.6584 29.1253 40.5316 29.0008C40.4494 28.9192 40.3515 28.8543 40.2436 28.8098C40.1357 28.7653 40.0199 28.7421 39.9029 28.7416H23.102C22.8659 28.7441 22.6401 28.8371 22.4731 29.0007C22.3061 29.1643 22.2112 29.3856 22.2087 29.617V58.1283C22.2087 58.3586 22.3035 58.5804 22.4733 58.7408C22.5516 58.8225 22.6461 58.8877 22.7511 58.9323C22.856 58.9769 22.9692 58.9999 23.0836 59H39.9189C40.1551 58.9988 40.3827 58.9048 40.5476 58.7408C40.6714 58.6128 40.7559 58.4531 40.7913 58.2802L40.779 58.2971ZM30.8171 26.8595C30.7556 26.8209 30.6977 26.7727 30.646 26.7172L28.6724 24.6229C28.3328 24.26 28.3561 23.6933 28.7265 23.3593C29.0969 23.0266 29.6752 23.0495 30.0148 23.4124L30.5858 24.0177V20.2486C30.5858 19.7543 30.9955 19.3528 31.5 19.3528C32.0045 19.3528 32.4142 19.7543 32.4142 20.2486V24.1913L33.0738 23.6523C33.2595 23.5012 33.4989 23.4285 33.7393 23.4502C33.9797 23.4719 34.2015 23.5863 34.3559 23.7681C34.4323 23.8581 34.4898 23.962 34.5252 24.0737C34.5605 24.1855 34.5731 24.3031 34.5621 24.4196C34.5512 24.5362 34.5169 24.6495 34.4612 24.753C34.4056 24.8566 34.3296 24.9484 34.2378 25.0232L31.9873 26.8631C31.6427 27.1441 31.1468 27.1344 30.8171 26.8595ZM18.1199 47.6784C18.0768 47.7387 18.0264 47.7942 17.9673 47.8448L15.83 49.6618C15.4498 49.9837 14.8727 49.9427 14.5441 49.5702C14.2156 49.1976 14.2574 48.6333 14.6376 48.3114L15.2344 47.8038C14.5269 47.7869 13.8157 47.6965 13.118 47.5265C12.2432 47.3155 11.3818 46.9791 10.5586 46.5137C9.49429 45.9121 8.5899 45.1489 7.86269 44.2795C7.1114 43.3775 6.53279 42.3498 6.1548 41.246C5.99484 40.7794 6.252 40.273 6.72943 40.1162C7.20562 39.9607 7.72241 40.2127 7.88238 40.6805C8.19181 41.5776 8.6641 42.4125 9.2765 43.145C9.88762 43.8774 10.6293 44.4951 11.4655 44.968C12.1324 45.3454 12.8362 45.6191 13.5536 45.7927C14.1196 45.9302 14.6955 46.0037 15.2664 46.0182L14.8764 45.5841C14.5429 45.214 14.5798 44.6485 14.9576 44.3217C15.3366 43.9962 15.9136 44.0324 16.2459 44.4025L18.1236 46.492C18.4324 46.8356 18.4238 47.3469 18.1199 47.6784ZM45.0327 47.8448C44.9736 47.7942 44.9232 47.7387 44.8801 47.6784C44.5774 47.3469 44.5676 46.8356 44.8764 46.492L46.7541 44.4013C46.8333 44.3132 46.9293 44.2413 47.0369 44.1896C47.1444 44.138 47.2613 44.1076 47.3808 44.1002C47.5003 44.0928 47.6202 44.1086 47.7335 44.1466C47.8468 44.1846 47.9514 44.2441 48.0412 44.3217C48.1313 44.3991 48.2049 44.4932 48.2578 44.5985C48.3107 44.7039 48.3419 44.8184 48.3495 44.9356C48.3572 45.0527 48.3412 45.1702 48.3024 45.2813C48.2637 45.3924 48.2029 45.4949 48.1236 45.5829L47.7336 46.0182C48.3045 46.0037 48.8804 45.9302 49.4464 45.7927C50.1789 45.6154 50.8823 45.3378 51.5357 44.968C52.3789 44.4919 53.1262 43.8687 53.7407 43.1293C54.3555 42.3878 54.8268 41.5423 55.1311 40.6347C55.207 40.4093 55.371 40.2227 55.5872 40.1158C55.8034 40.0089 56.054 39.9904 56.2841 40.0644C56.764 40.2187 57.0236 40.7251 56.8661 41.1941C56.4902 42.3083 55.9097 43.3457 55.1533 44.2554C54.4212 45.138 53.5106 45.9097 52.4413 46.5137C51.6194 46.9791 50.7568 47.3155 49.8832 47.5265C49.1898 47.6945 48.4797 47.7875 47.7656 47.8038L48.3623 48.3114C48.7426 48.6333 48.7844 49.1976 48.4558 49.5702C48.1273 49.9427 47.5502 49.9837 47.1712 49.6618L45.0327 47.8448ZM31.5 49.9331C32.9372 49.9331 34.1024 51.0749 34.1024 52.4832C34.1024 53.8914 32.9372 55.0332 31.5 55.0332C30.0628 55.0332 28.8976 53.8914 28.8976 52.4832C28.8976 51.0749 30.0628 49.9331 31.5 49.9331ZM37.4862 33.7393V35.9288H25.5211V33.7393H37.4862ZM37.4862 39.7967V41.9863H31.5898L31.532 41.7934L31.4557 41.9742H25.5211V39.7967H37.4862Z" fill="#67047A"/>
<path d="M57.4309 20.4114C57.3374 20.3198 57.2082 20.2619 57.0654 20.2619H49.5239C49.392 20.2618 49.2614 20.2874 49.1397 20.3373C49.018 20.3872 48.9077 20.4603 48.8152 20.5525C48.633 20.7285 48.5198 20.9757 48.5198 21.2457V36.7885C48.52 37.049 48.6258 37.2988 48.8139 37.483C48.996 37.6614 49.2495 37.7723 49.5239 37.7723H61.9959C62.2691 37.7723 62.5213 37.6602 62.7047 37.4806C62.8843 37.3033 63 37.0562 63 36.7885V25.4645C63 25.3777 63.0025 25.2981 62.9778 25.2137C62.9508 25.1245 62.8979 25.0401 62.8204 24.975L57.4309 20.4114Z" fill="#D1C4E9"/>
<path d="M14.3017 24.975L8.91105 20.4114C8.81754 20.3198 8.68834 20.2619 8.5456 20.2619C8.48654 20.2643 8.42625 20.2619 8.36719 20.2619H1.00406C0.872356 20.2619 0.74197 20.2876 0.620501 20.3375C0.499032 20.3874 0.388908 20.4605 0.296543 20.5525C0.114434 20.7285 0 20.9757 0 21.2457V36.7885C0 37.3286 0.452812 37.7723 1.00406 37.7723H13.4773C14.0249 37.7723 14.4802 37.3238 14.4802 36.7885V25.4934C14.4789 25.4066 14.4838 25.3355 14.4679 25.2523C14.4457 25.1486 14.3903 25.0497 14.3017 24.975Z" fill="#D1C4E9"/>
<path d="M38.5604 4.7131L33.171 0.148303C33.0775 0.0566692 32.9483 0 32.8055 0L32.7674 0.00120673L32.7292 0H25.2628C25.1311 -0.000186192 25.0008 0.0253037 24.8793 0.0749846C24.7578 0.124666 24.6477 0.197544 24.5552 0.28937C24.3731 0.465403 24.2599 0.712573 24.2599 0.982651V16.5266C24.2601 16.7872 24.3659 17.037 24.554 17.2211C24.7361 17.3983 24.9896 17.5105 25.2628 17.5105H37.736C38.0092 17.5105 38.2614 17.3971 38.4448 17.2187C38.6244 17.0402 38.7401 16.7943 38.7401 16.5266V5.16886V5.16881C38.7401 5.10734 38.7401 5.04707 38.7265 4.9868C38.7038 4.88001 38.6453 4.78371 38.5604 4.7131Z" fill="#D1C4E9"/>
<path d="M57.4309 20.4114C57.3374 20.3198 57.2082 20.2619 57.0654 20.2619H49.5239C49.392 20.2618 49.2614 20.2874 49.1397 20.3373C49.018 20.3872 48.9077 20.4603 48.8152 20.5525C48.633 20.7285 48.5198 20.9757 48.5198 21.2457V36.7885C48.52 37.049 48.6258 37.2988 48.8139 37.483C48.996 37.6614 49.2495 37.7723 49.5239 37.7723H61.9959C62.2691 37.7723 62.5213 37.6602 62.7047 37.4806C62.8843 37.3033 63 37.0562 63 36.7885V25.4645C63 25.3777 63.0025 25.2981 62.9778 25.2137C62.9508 25.1245 62.8979 25.0401 62.8204 24.975L57.4309 20.4114Z" stroke="#67047A"/>
<path d="M14.3017 24.975L8.91105 20.4114C8.81754 20.3198 8.68834 20.2619 8.5456 20.2619C8.48654 20.2643 8.42625 20.2619 8.36719 20.2619H1.00406C0.872356 20.2619 0.74197 20.2876 0.620501 20.3375C0.499032 20.3874 0.388908 20.4605 0.296543 20.5525C0.114434 20.7285 0 20.9757 0 21.2457V36.7885C0 37.3286 0.452812 37.7723 1.00406 37.7723H13.4773C14.0249 37.7723 14.4802 37.3238 14.4802 36.7885V25.4934C14.4789 25.4066 14.4838 25.3355 14.4679 25.2523C14.4457 25.1486 14.3903 25.0497 14.3017 24.975Z" stroke="#67047A"/>
<path d="M38.5604 4.7131L33.171 0.148303C33.0775 0.0566692 32.9483 0 32.8055 0L32.7674 0.00120673L32.7292 0H25.2628C25.1311 -0.000186192 25.0008 0.0253037 24.8793 0.0749846C24.7578 0.124666 24.6477 0.197544 24.5552 0.28937C24.3731 0.465403 24.2599 0.712573 24.2599 0.982651V16.5266C24.2601 16.7872 24.3659 17.037 24.554 17.2211C24.7361 17.3983 24.9896 17.5105 25.2628 17.5105H37.736C38.0092 17.5105 38.2614 17.3971 38.4448 17.2187C38.6244 17.0402 38.7401 16.7943 38.7401 16.5266V5.16886V5.16881C38.7401 5.10734 38.7401 5.04707 38.7265 4.9868C38.7038 4.88001 38.6453 4.78371 38.5604 4.7131Z" stroke="#67047A"/>
</g>
<defs>
<clipPath id="clip0_30_233">
<rect width="63" height="59" fill="white"/>
</clipPath>
</defs>
</svg>
