<svg version="1.1" xmlns="http://www.w3.org/2000/svg" xmlns:xlink="http://www.w3.org/1999/xlink" role="group" style="width: 100%; height: 100%; overflow: visible;"><defs><clipPath id="id-103"><rect width="180" height="150"></rect></clipPath><clipPath id="id-144"></clipPath><filter id="filter-id-108" filterUnits="objectBoundingBox" width="200%" height="200%" x="-50%" y="-50%"><feGaussianBlur result="blurOut" in="SourceGraphic" stdDeviation="1.5"></feGaussianBlur><feOffset result="offsetBlur" dx="1" dy="1"></feOffset><feFlood flood-color="#000000" flood-opacity="0.5"></feFlood><feComposite in2="offsetBlur" operator="in"></feComposite><feMerge><feMergeNode></feMergeNode><feMergeNode in="SourceGraphic"></feMergeNode></feMerge></filter><filter id="filter-id-149" filterUnits="objectBoundingBox" width="200%" height="200%" x="-50%" y="-50%"><feGaussianBlur result="blurOut" in="SourceGraphic" stdDeviation="1.5"></feGaussianBlur><feOffset result="offsetBlur" dx="1" dy="1"></feOffset><feFlood flood-color="#000000" flood-opacity="0.5"></feFlood><feComposite in2="offsetBlur" operator="in"></feComposite><feMerge><feMergeNode></feMergeNode><feMergeNode in="SourceGraphic"></feMergeNode></feMerge></filter><linearGradient id="gradient-id-123" x1="100%" x2="0%" y1="50%" y2="50%"><stop stop-color="#9dcff5" offset="0"></stop><stop stop-color="#d3e9fa" offset="1"></stop></linearGradient><clipPath id="id-395" transform="translate(72.5,60) scale(0.020338983050847456)"><path d="M0 3715 l0 -2185 350 0 350 0 0 -615 0 -615 130 0 130 0 0 615 0 615
170 0 170 0 338 -675 337 -675 5 600 5 600 292 -578 293 -577 1 1865 1 1865
98 -1975 c54 -1086 99 -1976 99 -1977 1 -2 129 -3 285 -3 l285 0 5 43 c3 23
66 1307 141 2852 74 1546 138 2854 142 2908 l6 97 -1817 0 -1816 0 0 -2185z
m700 -235 l0 -330 -205 0 -205 0 0 330 0 330 205 0 205 0 0 -330z m780 0 l0
-330 -200 0 -200 0 0 330 0 330 200 0 200 0 0 -330z m790 0 l0 -330 -205 0
-205 0 0 330 0 330 205 0 205 0 0 -330z M0 770 l0 -750 240 0 240 0 0 750 0 750 -240 0 -240 0 0 -750z" transform="translate(-1816.5,-2950)"></path></clipPath></defs><g><g fill="#ffffff" fill-opacity="0"><rect width="180" height="150"></rect></g><g><g role="region" clip-path="url(&quot;#id-103&quot;)" opacity="1" aria-label="Chart"><g transform="translate(15,15)"><g><g><g><g><g><g><g role="group" opacity="1" aria-label="Series"><g><g clip-path="url(&quot;#id-144&quot;)"><g></g></g><g></g><g transform="translate(0,0)" clip-path="url(&quot;#id-395&quot;)"><g><g fill-opacity="0.5" display="none" fill="url(&quot;#gradient-id-123&quot;)" opacity="0" aria-hidden="true" transform="translate(72.5,0)"><g><g><path d=" M-2,0  L2,0  Q2,0 2,0 L-2,0  Q-2,0 -2,0"></path></g></g></g><g fill="#11588d" role="menuitem" focusable="true" tabindex="0" stroke="#11588d"><g><g><path d=" M33.554,0  L111.446,0  L111.446,0  L33.554,0 "></path></g></g></g><g fill-opacity="0.5" fill="#11588d" opacity="1" transform="translate(72.5,0)"><g><g><path d=" M-38.946,0  L38.946,0  Q38.946,0 38.946,0 L-38.946,0  Q-38.946,0 -38.946,0"></path></g></g></g><g fill="#1a8be2" role="menuitem" focusable="true" tabindex="0" stroke="#1a8be2"><g><g><path d=" M33.554,0  L111.446,0  L111.446,0  L33.554,0 "></path></g></g></g><g fill-opacity="0.5" fill="#1a8be2" opacity="1" transform="translate(72.5,0)"><g><g><path d=" M-38.946,0  L38.946,0  Q38.946,0 38.946,0 L-38.946,0  Q-38.946,0 -38.946,0"></path></g></g></g><g fill="#6db7ef" role="menuitem" focusable="true" tabindex="0" stroke="#6db7ef"><g><g><path d=" M33.554,0  L111.446,0  L111.446,0  L33.554,0 "></path></g></g></g><g fill-opacity="0.5" fill="#6db7ef" opacity="1" transform="translate(72.5,0)"><g><g><path d=" M-38.946,0  L38.946,0  Q38.946,0 38.946,0 L-38.946,0  Q-38.946,0 -38.946,0"></path></g></g></g><g fill="url(&quot;#gradient-id-123&quot;)" role="menuitem" focusable="true" tabindex="0" stroke="url(&quot;#gradient-id-123&quot;)" id="id-366"><g><g><path d=" M33.554,0  L111.446,0  L111.446,120  L33.554,120 "></path></g></g></g><g visibility="hidden" transform="translate(72.5,60) scale(0.020338983050847456)"></g></g></g><g transform="translate(0,0)"><g><g fill-opacity="0" stroke-opacity="0.2" stroke="#000000" stroke-width="1" display="none" opacity="0" aria-hidden="true"><path></path></g><g fill-opacity="0" stroke-opacity="0.2" stroke="#000000" stroke-width="1" display="none" opacity="0" aria-hidden="true"><path></path></g><g fill-opacity="0" stroke-opacity="0.2" stroke="#000000" stroke-width="1" display="none" opacity="0" aria-hidden="true"><path></path></g><g fill-opacity="0" stroke-opacity="0.2" stroke="#000000" stroke-width="1" display="none" opacity="0" aria-hidden="true"><path></path></g></g></g><g transform="translate(0,0)"><g><g fill="#000000" display="none" aria-label="CRITICAL: 0.0%" opacity="0" aria-hidden="true" transform="translate(72.5,0)" style="pointer-events: none;"><g></g></g><g fill="#000000" display="none" aria-label="HIGH: 0.0%" opacity="0" aria-hidden="true" transform="translate(72.5,0)" style="pointer-events: none;"><g></g></g><g fill="#000000" display="none" aria-label="LOW: 0.0%" opacity="0" aria-hidden="true" transform="translate(72.5,0)" style="pointer-events: none;"><g></g></g><g fill="#000000" display="none" aria-label="NORMAL: 100.0%" opacity="0" aria-hidden="true" transform="translate(72.5,0)" style="pointer-events: none;"><g></g></g></g></g></g></g></g></g><g><g><g><g></g></g></g></g></g></g></g></g></g></g><g><g><g role="tooltip" visibility="hidden" opacity="0"><g fill="#ffffff" fill-opacity="0.9" stroke-width="1" stroke-opacity="1" stroke="#ffffff" filter="url(&quot;#filter-id-108&quot;)" style="pointer-events: none;" transform="translate(0,6)"><path d="M3,0 L3,0 L0,-6 L13,0 L21,0 a3,3 0 0 1 3,3 L24,8 a3,3 0 0 1 -3,3 L3,11 a3,3 0 0 1 -3,-3 L0,3 a3,3 0 0 1 3,-3"></path></g><g><g fill="#ffffff" style="pointer-events: none;" transform="translate(12,6)"><g transform="translate(0,7)" display="none"></g></g></g></g><g visibility="hidden" style="pointer-events: none;" display="none"><g fill="#ffffff" opacity="1"><rect width="180" height="150"></rect></g><g><g transform="translate(90,75)"><g><g stroke-opacity="1" fill="#f3f3f3" fill-opacity="0.8"><g><g><path d=" M53,0  a53,53,0,0,1,-106,0 a53,53,0,0,1,106,0 M42,0  a42,42,0,0,0,-84,0 a42,42,0,0,0,84,0 L42,0 "></path></g></g></g><g stroke-opacity="1" fill="#000000" fill-opacity="0.2"><g><g><path d=" M50,0  a50,50,0,0,1,-100,0 a50,50,0,0,1,100,0 M45,0  a45,45,0,0,0,-90,0 a45,45,0,0,0,90,0 L45,0 "></path></g></g></g><g fill="#000000" fill-opacity="0.4"><g transform="translate(-18.5,-8.5)" style="user-select: none;"><text x="18.5px" y="16.5" dy="-4.455" text-anchor="middle"><tspan>100%</tspan></text></g></g></g></g></g></g><g role="tooltip" opacity="0" aria-describedby="id-366" transform="translate(87.5,75)" aria-hidden="true" visibility="hidden"><g fill="url(&quot;#gradient-id-123&quot;)" fill-opacity="0.9" stroke-width="1" stroke-opacity="1" stroke="#ffffff" filter="url(&quot;#filter-id-149&quot;)" style="pointer-events: none;" transform="translate(-80.5,-34)"><path d="M3,0 L158,0 a3,3 0 0 1 3,3 L161,25 a3,3 0 0 1 -3,3 L158,28 L85.5,28 L80.5,34 L75.5,28 L3,28 a3,3 0 0 1 -3,-3 L0,3 a3,3 0 0 1 3,-3"></path></g><g><g fill="#ffffff" style="pointer-events: none;" transform="translate(0,-34)"><g transform="translate(-68.5,7)" style="user-select: none;"><text x="0" y="16.5" dy="-4.455"><tspan>NORMAL: 100% (12)</tspan></text></g></g></g></g></g></g></g></g></svg>