<svg version="1.1" xmlns="http://www.w3.org/2000/svg" xmlns:xlink="http://www.w3.org/1999/xlink" role="group" style="width: 100%; height: 100%; overflow: visible;"><defs><clipPath id="id-30"><rect width="180" height="150"></rect></clipPath><clipPath id="id-71"></clipPath><filter id="filter-id-35" filterUnits="objectBoundingBox" width="200%" height="200%" x="-50%" y="-50%"><feGaussianBlur result="blurOut" in="SourceGraphic" stdDeviation="1.5"></feGaussianBlur><feOffset result="offsetBlur" dx="1" dy="1"></feOffset><feFlood flood-color="#000000" flood-opacity="0.5"></feFlood><feComposite in2="offsetBlur" operator="in"></feComposite><feMerge><feMergeNode></feMergeNode><feMergeNode in="SourceGraphic"></feMergeNode></feMerge></filter><filter id="filter-id-76" filterUnits="objectBoundingBox" width="200%" height="200%" x="-50%" y="-50%"><feGaussianBlur result="blurOut" in="SourceGraphic" stdDeviation="1.5"></feGaussianBlur><feOffset result="offsetBlur" dx="1" dy="1"></feOffset><feFlood flood-color="#000000" flood-opacity="0.5"></feFlood><feComposite in2="offsetBlur" operator="in"></feComposite><feMerge><feMergeNode></feMergeNode><feMergeNode in="SourceGraphic"></feMergeNode></feMerge></filter><linearGradient id="gradient-id-50" x1="100%" x2="0%" y1="50%" y2="50%"><stop stop-color="#9dcff5" offset="0"></stop><stop stop-color="#d3e9fa" offset="1"></stop></linearGradient><clipPath id="id-284" transform="translate(72.5,60) scale(0.020233528643088985)"><path d="M12 5918 c-16 -16 -16 -200 0 -216 9 -9 73 -12 226 -12 l213 0 -25
-33 c-34 -44 -71 -130 -85 -195 -8 -37 -11 -319 -11 -942 l0 -890 -68 0 c-40
0 -73 -5 -80 -12 -16 -16 -16 -200 0 -216 7 -7 40 -12 80 -12 l68 0 0 -969 c0
-602 4 -989 10 -1022 25 -136 132 -281 256 -346 98 -52 163 -63 392 -63 l202
0 0 -219 0 -219 -110 -4 c-162 -5 -154 8 -158 -268 l-3 -220 30 -30 29 -30
872 0 872 0 29 29 29 29 0 217 0 217 -29 29 c-29 28 -32 29 -135 29 l-106 0 0
220 0 220 208 0 c154 0 223 4 267 15 180 47 323 190 370 370 13 51 15 191 15
1037 l0 978 38 0 c56 0 62 11 62 120 0 109 -6 120 -62 120 l-38 0 0 893 c0
752 -3 902 -15 955 -16 68 -44 129 -82 180 l-24 32 178 0 c126 0 183 4 191 12
16 16 16 200 0 216 -17 17 -3589 17 -3606 0z m1981 -2099 c217 -72 354 -293
318 -512 -22 -132 -55 -184 -230 -355 -86 -84 -177 -171 -202 -192 l-47 -40
-176 185 c-96 101 -189 208 -206 237 -91 158 -81 362 24 505 65 89 167 159
263 182 72 17 189 12 256 -10z m-323 -2954 c0 -170 -5 -165 180 -165 185 0
180 -5 180 165 l0 125 60 0 60 0 0 -220 0 -220 -300 0 -300 0 0 220 0 220 60
0 60 0 0 -125z" transform="translate(-1815,-2965.375)"></path></clipPath></defs><g><g fill="#ffffff" fill-opacity="0"><rect width="180" height="150"></rect></g><g><g role="region" clip-path="url(&quot;#id-30&quot;)" opacity="1" aria-label="Chart"><g transform="translate(15,15)"><g><g><g><g><g><g><g role="group" opacity="1" aria-label="Series"><g><g clip-path="url(&quot;#id-71&quot;)"><g></g></g><g></g><g transform="translate(0,0)" clip-path="url(&quot;#id-284&quot;)"><g><g fill-opacity="0.5" display="none" fill="url(&quot;#gradient-id-50&quot;)" opacity="0" aria-hidden="true" transform="translate(72.5,0)"><g><g><path d=" M-2,0  L2,0  Q2,0 2,0 L-2,0  Q-2,0 -2,0"></path></g></g></g><g fill="#11588d" role="menuitem" focusable="true" tabindex="0" stroke="#11588d"><g><g><path d=" M33.776,0  L111.224,0  L111.224,0  L33.776,0 "></path></g></g></g><g fill-opacity="0.5" fill="#11588d" opacity="1" transform="translate(72.5,0)"><g><g><path d=" M-38.724,0  L38.724,0  Q38.724,0 38.724,0 L-38.724,0  Q-38.724,0 -38.724,0"></path></g></g></g><g fill="#1a8be2" role="menuitem" focusable="true" tabindex="0" stroke="#1a8be2"><g><g><path d=" M33.776,0  L111.224,0  L111.224,0  L33.776,0 "></path></g></g></g><g fill-opacity="0.5" fill="#1a8be2" opacity="1" transform="translate(72.5,0)"><g><g><path d=" M-38.724,0  L38.724,0  Q38.724,0 38.724,0 L-38.724,0  Q-38.724,0 -38.724,0"></path></g></g></g><g fill="#6db7ef" role="menuitem" focusable="true" tabindex="0" stroke="#6db7ef"><g><g><path d=" M33.776,0  L111.224,0  L111.224,0  L33.776,0 "></path></g></g></g><g fill-opacity="0.5" fill="#6db7ef" opacity="1" transform="translate(72.5,0)"><g><g><path d=" M-38.724,0  L38.724,0  Q38.724,0 38.724,0 L-38.724,0  Q-38.724,0 -38.724,0"></path></g></g></g><g fill="url(&quot;#gradient-id-50&quot;)" role="menuitem" focusable="true" tabindex="0" stroke="url(&quot;#gradient-id-50&quot;)" id="id-255"><g><g><path d=" M33.776,0  L111.224,0  L111.224,120  L33.776,120 "></path></g></g></g><g visibility="hidden" transform="translate(72.5,60) scale(0.020233528643088985)"></g></g></g><g transform="translate(0,0)"><g><g fill-opacity="0" stroke-opacity="0.2" stroke="#000000" stroke-width="1" display="none" opacity="0" aria-hidden="true"><path></path></g><g fill-opacity="0" stroke-opacity="0.2" stroke="#000000" stroke-width="1" display="none" opacity="0" aria-hidden="true"><path></path></g><g fill-opacity="0" stroke-opacity="0.2" stroke="#000000" stroke-width="1" display="none" opacity="0" aria-hidden="true"><path></path></g><g fill-opacity="0" stroke-opacity="0.2" stroke="#000000" stroke-width="1" display="none" opacity="0" aria-hidden="true"><path></path></g></g></g><g transform="translate(0,0)"><g><g fill="#000000" display="none" aria-label="CRITICAL: 0.0%" opacity="0" aria-hidden="true" transform="translate(72.5,0)" style="pointer-events: none;"><g></g></g><g fill="#000000" display="none" aria-label="HIGH: 0.0%" opacity="0" aria-hidden="true" transform="translate(72.5,0)" style="pointer-events: none;"><g></g></g><g fill="#000000" display="none" aria-label="LOW: 0.0%" opacity="0" aria-hidden="true" transform="translate(72.5,0)" style="pointer-events: none;"><g></g></g><g fill="#000000" display="none" aria-label="NORMAL: 100.0%" opacity="0" aria-hidden="true" transform="translate(72.5,0)" style="pointer-events: none;"><g></g></g></g></g></g></g></g></g><g><g><g><g></g></g></g></g></g></g></g></g></g></g><g><g><g role="tooltip" visibility="hidden" opacity="0"><g fill="#ffffff" fill-opacity="0.9" stroke-width="1" stroke-opacity="1" stroke="#ffffff" filter="url(&quot;#filter-id-35&quot;)" style="pointer-events: none;" transform="translate(0,6)"><path d="M3,0 L3,0 L0,-6 L13,0 L21,0 a3,3 0 0 1 3,3 L24,8 a3,3 0 0 1 -3,3 L3,11 a3,3 0 0 1 -3,-3 L0,3 a3,3 0 0 1 3,-3"></path></g><g><g fill="#ffffff" style="pointer-events: none;" transform="translate(12,6)"><g transform="translate(0,7)" display="none"></g></g></g></g><g visibility="hidden" display="none" style="pointer-events: none;"><g fill="#ffffff" opacity="1"><rect width="180" height="150"></rect></g><g><g transform="translate(90,75)"><g><g stroke-opacity="1" fill="#f3f3f3" fill-opacity="0.8"><g><g><path d=" M53,0  a53,53,0,0,1,-106,0 a53,53,0,0,1,106,0 M42,0  a42,42,0,0,0,-84,0 a42,42,0,0,0,84,0 L42,0 "></path></g></g></g><g stroke-opacity="1" fill="#000000" fill-opacity="0.2"><g><g><path d=" M50,0  a50,50,0,0,1,-100,0 a50,50,0,0,1,100,0 M45,0  a45,45,0,0,0,-90,0 a45,45,0,0,0,90,0 L45,0 "></path></g></g></g><g fill="#000000" fill-opacity="0.4"><g transform="translate(-18.5,-8.5)" style="user-select: none;"><text x="18.5px" y="16.5" dy="-4.455" text-anchor="middle"><tspan>100%</tspan></text></g></g></g></g></g></g><g role="tooltip" opacity="0" aria-describedby="id-255" transform="translate(87.5,75)" aria-hidden="true" visibility="hidden"><g fill="url(&quot;#gradient-id-50&quot;)" fill-opacity="0.9" stroke-width="1" stroke-opacity="1" stroke="#ffffff" filter="url(&quot;#filter-id-76&quot;)" style="pointer-events: none;" transform="translate(-80.5,-34)"><path d="M3,0 L158,0 a3,3 0 0 1 3,3 L161,25 a3,3 0 0 1 -3,3 L158,28 L85.5,28 L80.5,34 L75.5,28 L3,28 a3,3 0 0 1 -3,-3 L0,3 a3,3 0 0 1 3,-3"></path></g><g><g fill="#ffffff" style="pointer-events: none;" transform="translate(0,-34)"><g transform="translate(-68.5,7)" style="user-select: none;"><text x="0" y="16.5" dy="-4.455"><tspan>NORMAL: 100% (53)</tspan></text></g></g></g></g></g></g></g></g></svg>