<svg version="1.1" xmlns="http://www.w3.org/2000/svg" xmlns:xlink="http://www.w3.org/1999/xlink" role="group" style="width: 100%; height: 100%; overflow: visible;"><defs><clipPath id="id-406"><rect width="180" height="150"></rect></clipPath><clipPath id="id-447"></clipPath><filter id="filter-id-411" filterUnits="objectBoundingBox" width="200%" height="200%" x="-50%" y="-50%"><feGaussianBlur result="blurOut" in="SourceGraphic" stdDeviation="1.5"></feGaussianBlur><feOffset result="offsetBlur" dx="1" dy="1"></feOffset><feFlood flood-color="#000000" flood-opacity="0.5"></feFlood><feComposite in2="offsetBlur" operator="in"></feComposite><feMerge><feMergeNode></feMergeNode><feMergeNode in="SourceGraphic"></feMergeNode></feMerge></filter><filter id="filter-id-452" filterUnits="objectBoundingBox" width="200%" height="200%" x="-50%" y="-50%"><feGaussianBlur result="blurOut" in="SourceGraphic" stdDeviation="1.5"></feGaussianBlur><feOffset result="offsetBlur" dx="1" dy="1"></feOffset><feFlood flood-color="#000000" flood-opacity="0.5"></feFlood><feComposite in2="offsetBlur" operator="in"></feComposite><feMerge><feMergeNode></feMergeNode><feMergeNode in="SourceGraphic"></feMergeNode></feMerge></filter><linearGradient id="gradient-id-426" x1="100%" x2="0%" y1="50%" y2="50%"><stop stop-color="#9dcff5" offset="0"></stop><stop stop-color="#d3e9fa" offset="1"></stop></linearGradient><clipPath id="id-660" transform="translate(72.5,60) scale(0.020327348227971886)"><path d="M343 5885 c-162 -44 -285 -168 -328 -330 -13 -52 -15 -350 -15 -2605
0 -2224 2 -2553 15 -2603 43 -167 164 -288 330 -332 88 -22 1951 -23 2038 0
166 43 281 155 331 324 12 42 16 99 16 248 l0 193 91 0 c75 0 98 4 128 21 20
12 135 131 256 265 l220 244 53 0 c64 0 106 20 132 63 19 31 20 54 20 575 l0
542 -100 0 -100 0 0 1288 c0 1048 -2 1292 -13 1306 -7 10 -166 118 -352 240
-186 123 -342 229 -346 237 -4 8 -22 46 -40 84 -55 118 -163 205 -294 240 -85
22 -1961 22 -2042 0z m2555 -899 l152 -100 0 -1198 0 -1198 -100 0 -100 0 0
-527 0 -527 46 -47 47 -47 -19 -24 c-69 -87 -151 -168 -171 -168 l-23 0 0
1971 c0 1084 4 1969 8 1967 5 -1 77 -48 160 -102z m-1397 -1156 c240 -74 377
-321 314 -565 -27 -103 -68 -156 -268 -349 -104 -99 -192 -181 -197 -181 -15
0 -340 348 -375 400 -96 146 -98 350 -6 492 42 65 121 142 172 169 108 56 247
69 360 34z m874 -2362 c-7 -468 -7 -623 0 -805 l6 -153 -1015 0 -1016 0 0 655
0 655 1015 0 1016 0 -6 -352z" transform="translate(-1815,-2949.811)"></path></clipPath></defs><g><g fill="#ffffff" fill-opacity="0"><rect width="180" height="150"></rect></g><g><g role="region" clip-path="url(&quot;#id-406&quot;)" opacity="1" aria-label="Chart"><g transform="translate(15,15)"><g><g><g><g><g><g><g role="group" opacity="1" aria-label="Series"><g><g clip-path="url(&quot;#id-447&quot;)"><g></g></g><g></g><g transform="translate(0,0)" clip-path="url(&quot;#id-660&quot;)"><g><g fill-opacity="0.5" fill="#11588d" opacity="1" transform="translate(72.5,0.04)"><g><g><path d=" M-38.894,0  L38.894,0  Q38.894,0 38.894,0 L-38.894,0  Q-38.894,0 -38.894,0"></path></g></g></g><g fill-opacity="0.5" fill="#1a8be2" opacity="1" transform="translate(72.5,1.451)"><g><g><path d=" M-38.894,0  L38.894,0  Q38.894,0 38.894,0 L-38.894,0  Q-38.894,0 -38.894,0"></path></g></g></g><g fill-opacity="0.5" fill="#6db7ef" opacity="1" transform="translate(72.5,48.013)"><g><g><path d=" M-38.894,0  L38.894,0  Q38.894,0 38.894,0 L-38.894,0  Q-38.894,0 -38.894,0"></path></g></g></g><g fill-opacity="0.5" display="none" fill="url(&quot;#gradient-id-426&quot;)" opacity="0" aria-hidden="true" transform="translate(72.5,0)"><g><g><path d=" M-2,0  L2,0  Q2,0 2,0 L-2,0  Q-2,0 -2,0"></path></g></g></g><g fill="#11588d" role="menuitem" focusable="true" tabindex="0" stroke="#11588d"><g><g><path d=" M33.606,0  L111.394,0  L111.394,0.04  L33.606,0.04 "></path></g></g></g><g fill="#1a8be2" role="menuitem" focusable="true" tabindex="0" stroke="#1a8be2" transform="translate(0,0.04)"><g><g><path d=" M33.606,0  L111.394,0  L111.394,1.411  L33.606,1.411 "></path></g></g></g><g fill="#6db7ef" role="menuitem" focusable="true" tabindex="0" stroke="#6db7ef" transform="translate(0,1.451)"><g><g><path d=" M33.606,0  L111.394,0  L111.394,46.562  L33.606,46.562 "></path></g></g></g><g fill="url(&quot;#gradient-id-426&quot;)" role="menuitem" focusable="true" tabindex="0" stroke="url(&quot;#gradient-id-426&quot;)" transform="translate(0,48.013)" id="id-631"><g><g><path d=" M33.606,0  L111.394,0  L111.394,71.987  L33.606,71.987 "></path></g></g></g><g visibility="hidden" transform="translate(72.5,60) scale(0.020327348227971886)"></g></g></g><g transform="translate(0,0)"><g><g fill-opacity="0" stroke-opacity="0.2" stroke="#000000" stroke-width="1" display="none" opacity="0" aria-hidden="true"><path></path></g><g fill-opacity="0" stroke-opacity="0.2" stroke="#000000" stroke-width="1" display="none" opacity="0" aria-hidden="true"><path></path></g><g fill-opacity="0" stroke-opacity="0.2" stroke="#000000" stroke-width="1" display="none" opacity="0" aria-hidden="true"><path></path></g><g fill-opacity="0" stroke-opacity="0.2" stroke="#000000" stroke-width="1" display="none" opacity="0" aria-hidden="true"><path></path></g></g></g><g transform="translate(0,0)"><g><g fill="#000000" display="none" aria-label="CRITICAL: 0.0%" opacity="0" aria-hidden="true" transform="translate(72.5,0)" style="pointer-events: none;"><g></g></g><g fill="#000000" display="none" aria-label="HIGH: 1.2%" opacity="0" aria-hidden="true" transform="translate(72.5,0)" style="pointer-events: none;"><g></g></g><g fill="#000000" display="none" aria-label="LOW: 38.8%" opacity="0" aria-hidden="true" transform="translate(72.5,0)" style="pointer-events: none;"><g></g></g><g fill="#000000" display="none" aria-label="NORMAL: 60.0%" opacity="0" aria-hidden="true" transform="translate(72.5,0)" style="pointer-events: none;"><g></g></g></g></g></g></g></g></g><g><g><g><g></g></g></g></g></g></g></g></g></g></g><g><g><g role="tooltip" visibility="hidden" opacity="0"><g fill="#ffffff" fill-opacity="0.9" stroke-width="1" stroke-opacity="1" stroke="#ffffff" filter="url(&quot;#filter-id-411&quot;)" style="pointer-events: none;" transform="translate(0,6)"><path d="M3,0 L3,0 L0,-6 L13,0 L21,0 a3,3 0 0 1 3,3 L24,8 a3,3 0 0 1 -3,3 L3,11 a3,3 0 0 1 -3,-3 L0,3 a3,3 0 0 1 3,-3"></path></g><g><g fill="#ffffff" style="pointer-events: none;" transform="translate(12,6)"><g transform="translate(0,7)" display="none"></g></g></g></g><g visibility="hidden" display="none" style="pointer-events: none;"><g fill="#ffffff" opacity="1"><rect width="180" height="150"></rect></g><g><g transform="translate(90,75)"><g><g stroke-opacity="1" fill="#f3f3f3" fill-opacity="0.8"><g><g><path d=" M53,0  a53,53,0,0,1,-106,0 a53,53,0,0,1,106,0 M42,0  a42,42,0,0,0,-84,0 a42,42,0,0,0,84,0 L42,0 "></path></g></g></g><g stroke-opacity="1" fill="#000000" fill-opacity="0.2"><g><g><path d=" M50,0  a50,50,0,0,1,-100,0 a50,50,0,0,1,100,0 M45,0  a45,45,0,0,0,-90,0 a45,45,0,0,0,90,0 L45,0 "></path></g></g></g><g fill="#000000" fill-opacity="0.4"><g transform="translate(-18.5,-8.5)" style="user-select: none;"><text x="18.5px" y="16.5" dy="-4.455" text-anchor="middle"><tspan>100%</tspan></text></g></g></g></g></g></g><g role="tooltip" opacity="0" aria-describedby="id-631" transform="translate(87.5,99.0065)" aria-hidden="true" visibility="hidden"><g fill="url(&quot;#gradient-id-426&quot;)" fill-opacity="0.9" stroke-width="1" stroke-opacity="1" stroke="#ffffff" filter="url(&quot;#filter-id-452&quot;)" style="pointer-events: none;" transform="translate(-87.5,-34)"><path d="M3,0 L178,0 a3,3 0 0 1 3,3 L181,25 a3,3 0 0 1 -3,3 L178,28 L92.5,28 L87.5,34 L82.5,28 L3,28 a3,3 0 0 1 -3,-3 L0,3 a3,3 0 0 1 3,-3"></path></g><g><g fill="#ffffff" style="pointer-events: none;" transform="translate(3,-34)"><g transform="translate(-78.5,7)" style="user-select: none;"><text x="0" y="16.5" dy="-4.455"><tspan>NORMAL: 60% (10,765)</tspan></text></g></g></g></g></g></g></g></g></svg>