<!DOCTYPE svg PUBLIC "-//W3C//DTD SVG 1.1//EN" "http://www.w3.org/Graphics/SVG/1.1/DTD/svg11.dtd">
<!-- Uploaded to: SVG Repo, www.svgrepo.com, Transformed by: SVG Repo Mixer Tools -->
<svg height="256px" width="256px" version="1.1" id="Layer_1" xmlns="http://www.w3.org/2000/svg" xmlns:xlink="http://www.w3.org/1999/xlink" viewBox="0 0 512.003 512.003" xml:space="preserve" fill="#000000" transform="rotate(-45)matrix(-1, 0, 0, 1, 0, 0)">
<g id="SVGRepo_bgCarrier" stroke-width="0"/>
<g id="SVGRepo_tracerCarrier" stroke-linecap="round" stroke-linejoin="round"/>
<g id="SVGRepo_iconCarrier"> <path d="M509.509,305.471l-59.381-59.381c7.348-4.443,12.047-10.68,13.158-17.942c1.196-8.117-2.221-16.063-9.569-22.385 l23.667-70.915c0.854-2.649,0.427-5.468-1.196-7.69c-1.623-2.307-4.187-3.588-6.921-3.588h-25.632c-2.905,0-5.724,1.538-7.262,4.016 l-32.894,52.717l-29.648-44.343c-1.538-2.392-4.272-3.845-7.092-3.845h-25.632c-2.649,0-5.212,1.282-6.835,3.418 c-1.623,2.136-2.136,4.87-1.367,7.433l13.927,48.957H235.332l45.027-90.139c1.367-2.649,1.196-5.81-0.342-8.373 c-1.538-2.478-4.272-4.016-7.262-4.016h-34.176c-2.307,0-4.443,0.94-6.066,2.478l-100.05,100.136 c-57.758,1.538-78.69,14.525-104.493,44.514C3.02,250.961-2.448,270.526,0.884,284.197c3.845,16.063,19.48,26.572,41.182,27.341 h53.827c-1.623,3.93-2.563,8.202-2.563,12.816c0,16.49,11.534,29.904,25.632,29.904c32.467,0,66.9-6.664,79.887-21.104 l137.644,88.089c1.367,0.94,2.99,1.367,4.614,1.367h59.808c3.588,0,6.835-2.221,8.031-5.639c1.196-3.332,0.256-7.092-2.563-9.484 l-128.16-107.911c55.28-9.313,97.316-21.702,120.727-29.562l82.535,57.074c1.452,1.025,3.161,1.538,4.87,1.538 c1.282,0,2.649-0.256,3.845-0.94l17.088-8.544c2.392-1.196,4.187-3.503,4.614-6.237 C512.329,310.171,511.389,307.437,509.509,305.471z M448.334,140.657h9.057l-20.506,61.602c-7.86,2.136-17.942,0.513-24.778-3.588 L448.334,140.657z M362.125,149.201l28.537,42.72h-26.059l-12.133-42.72H362.125z M242.081,106.481h16.832l-42.72,85.44h-59.552 L242.081,106.481z M118.962,337.17c-4.528,0-8.544-5.981-8.544-12.816s4.016-12.816,8.544-12.816c4.528,0,8.544,5.981,8.544,12.816 S123.499,337.17,118.962,337.17z M142.629,335.888c1.282-3.589,1.965-7.433,1.965-11.534c0-4.614-0.94-8.886-2.563-12.816h22.983 l19.139,12.218C178.343,327.942,164.331,333.41,142.629,335.888z M377.504,405.522h-33.92L156.727,285.906h78.776L377.504,405.522z M260.964,285.051l-16.917-14.269c-1.538-1.282-3.418-1.965-5.468-1.965H127.506c-3.759,0-7.092,2.478-8.202,6.152 c-1.025,3.674,0.427,7.519,3.588,9.569l15.465,9.911H42.408c-13.414-0.513-22.898-5.895-24.949-14.268 c-2.307-9.826,5.554-21.36,20.249-29.562c0.854-0.427,1.623-1.111,2.307-1.88c3.418-4.101,6.75-7.69,10.082-11.107l11.534,11.62 c0.769,0.769,1.794,1.367,2.82,1.794c1.025,0.427,2.136,0.684,3.247,0.684h17.088c4.699,0,8.544-3.845,8.544-8.544 s-3.845-8.544-8.544-8.544H71.201l-8.202-8.288c15.636-11.278,35.372-16.661,73.051-17.344h261.361 c8.031,7.177,17.259,8.544,29.135,8.544h17.088c2.99,2.478,3.076,5.895,2.734,8.117c-0.342,2.392-3.418,5.468-8.971,7.69 l-4.785-4.785c-1.965-1.965-4.699-2.82-7.433-2.392l-51.264,8.544c-3.503,0.598-6.237,3.161-7.006,6.579 c-0.684,3.418,0.684,6.921,3.503,8.886l10.851,7.519C354.862,265.998,313.339,277.105,260.964,285.051z M487.038,310.171 l-89.541-62.03l26.145-4.357l65.362,65.447L487.038,310.171z"/> <g> <polygon style="fill:#29adc7;" points="390.662,191.922 364.603,191.922 352.47,149.201 362.125,149.201 "/> <polygon style="fill:#29adc7;" points="489.003,309.231 487.038,310.171 397.497,248.141 423.642,243.784 "/> </g> <path style="fill:#555656;" d="M127.506,324.354c0,6.835-4.016,12.816-8.544,12.816c-4.528,0-8.544-5.981-8.544-12.816 s4.016-12.816,8.544-12.816C123.491,311.538,127.506,317.519,127.506,324.354z"/> <path style="fill:#90A4AE;" d="M142.629,335.888c1.282-3.589,1.965-7.433,1.965-11.534c0-4.614-0.94-8.886-2.563-12.816h22.983 l19.139,12.218C178.343,327.942,164.331,333.41,142.629,335.888z"/> <path d="M136.05,243.186c0,4.699-3.845,8.544-8.544,8.544h-8.544c-4.699,0-8.544-3.845-8.544-8.544s3.845-8.544,8.544-8.544h8.544 C132.205,234.642,136.05,238.486,136.05,243.186z"/> <path d="M178.77,243.186c0,4.699-3.845,8.544-8.544,8.544h-8.544c-4.699,0-8.544-3.845-8.544-8.544s3.845-8.544,8.544-8.544h8.544 C174.926,234.642,178.77,238.486,178.77,243.186z"/> <path d="M221.49,243.186c0,4.699-3.845,8.544-8.544,8.544h-8.544c-4.699,0-8.544-3.845-8.544-8.544s3.845-8.544,8.544-8.544h8.544 C217.646,234.642,221.49,238.486,221.49,243.186z"/> <path d="M264.21,243.186c0,4.699-3.845,8.544-8.544,8.544h-8.544c-4.699,0-8.544-3.845-8.544-8.544s3.845-8.544,8.544-8.544h8.544 C260.366,234.642,264.21,238.486,264.21,243.186z"/> <path d="M306.931,243.186c0,4.699-3.845,8.544-8.544,8.544h-8.544c-4.699,0-8.544-3.845-8.544-8.544s3.845-8.544,8.544-8.544h8.544 C303.086,234.642,306.931,238.486,306.931,243.186z"/> <path d="M349.651,243.186c0,4.699-3.845,8.544-8.544,8.544h-8.544c-4.699,0-8.544-3.845-8.544-8.544s3.845-8.544,8.544-8.544h8.544 C345.806,234.642,349.651,238.486,349.651,243.186z"/> <g> <path style="fill:#29adc7;" d="M52.464,240.708c0.513,0.513,1.213,0.837,1.88,1.196l-4.238-4.272 c-0.111,0.111-0.222,0.239-0.333,0.359L52.464,240.708z"/> <path style="fill:#29adc7;" d="M37.82,294.057c-0.555-0.077-1.068-0.188-1.606-0.282C36.752,293.86,37.264,293.98,37.82,294.057z"/> <path style="fill:#29adc7;" d="M33.625,293.271c-0.649-0.154-1.256-0.35-1.871-0.538C32.369,292.92,32.975,293.117,33.625,293.271z "/> <path style="fill:#29adc7;" d="M29.874,292.143c-0.675-0.248-1.307-0.521-1.931-0.803 C28.567,291.622,29.199,291.895,29.874,292.143z"/> <path style="fill:#29adc7;" d="M26.576,290.69c-0.658-0.342-1.29-0.709-1.888-1.102C25.294,289.981,25.918,290.349,26.576,290.69z"/> <path style="fill:#29adc7;" d="M21.441,286.965c-0.555-0.564-1.085-1.145-1.538-1.769C20.356,285.82,20.877,286.401,21.441,286.965 z"/> <path style="fill:#29adc7;" d="M23.765,288.956c-0.624-0.453-1.213-0.923-1.752-1.418C22.56,288.033,23.141,288.503,23.765,288.956 z"/> <path style="fill:#29adc7;" d="M436.979,217.554h-10.432c-11.876,0-21.104-1.367-29.135-8.544H136.05 c-37.679,0.684-57.416,6.066-73.051,17.344l8.202,8.288h13.585c4.699,0,8.544,3.845,8.544,8.544s-3.845,8.544-8.544,8.544H67.698 c-1.111,0-2.221-0.256-3.247-0.684c-1.025-0.427-2.051-1.025-2.82-1.794l-11.534-11.62c-3.332,3.418-6.664,7.006-10.082,11.107 c-0.684,0.769-1.452,1.452-2.307,1.88c-14.696,8.202-22.556,19.737-20.249,29.562c0.205,0.846,0.538,1.64,0.897,2.418 c4.058,1.897,9.065,3.084,14.884,3.307h91.788l13.329,8.544l-15.465-9.911c-3.161-2.051-4.614-5.895-3.588-9.569 c1.111-3.674,4.443-6.152,8.202-6.152h111.072c2.051,0,3.93,0.684,5.468,1.965l16.917,14.269l-9.885-8.339 c49.453-7.741,92.925-18.874,118.916-26.914c-2.503-2.016-3.734-5.272-3.093-8.493c0.769-3.418,3.503-5.981,7.006-6.579 l51.264-8.544c1.299-0.205,2.58-0.068,3.794,0.282l0,0C434.228,225.183,437.748,222.381,436.979,217.554z M127.506,251.73h-8.544 c-4.699,0-8.544-3.845-8.544-8.544s3.845-8.544,8.544-8.544h8.544c4.699,0,8.544,3.845,8.544,8.544S132.205,251.73,127.506,251.73z M170.226,251.73h-8.544c-4.699,0-8.544-3.845-8.544-8.544s3.845-8.544,8.544-8.544h8.544c4.699,0,8.544,3.845,8.544,8.544 S174.926,251.73,170.226,251.73z M212.946,251.73h-8.544c-4.699,0-8.544-3.845-8.544-8.544s3.845-8.544,8.544-8.544h8.544 c4.699,0,8.544,3.845,8.544,8.544S217.646,251.73,212.946,251.73z M255.666,251.73h-8.544c-4.699,0-8.544-3.845-8.544-8.544 s3.845-8.544,8.544-8.544h8.544c4.699,0,8.544,3.845,8.544,8.544S260.366,251.73,255.666,251.73z M298.387,251.73h-8.544 c-4.699,0-8.544-3.845-8.544-8.544s3.845-8.544,8.544-8.544h8.544c4.699,0,8.544,3.845,8.544,8.544S303.086,251.73,298.387,251.73z M341.107,251.73h-8.544c-4.699,0-8.544-3.845-8.544-8.544s3.845-8.544,8.544-8.544h8.544c4.699,0,8.544,3.845,8.544,8.544 S345.806,251.73,341.107,251.73z"/> <path style="fill:#29adc7;" d="M19.63,284.786c-0.478-0.701-0.923-1.418-1.265-2.187C18.707,283.368,19.151,284.086,19.63,284.786z "/> <path style="fill:#29adc7;" d="M432.613,228.575c-0.88-0.88-1.931-1.452-3.05-1.863 C430.682,227.131,431.741,227.704,432.613,228.575z"/> </g> <g> <path style="fill:#90A4AE;" d="M370.002,249.799L370.002,249.799c0.154,0.12,0.256,0.282,0.41,0.393 C370.259,250.081,370.156,249.918,370.002,249.799z"/> <path style="fill:#90A4AE;" d="M260.964,285.051c52.375-7.946,93.899-19.053,120.3-27.341l-10.851-7.519 c-0.162-0.111-0.265-0.273-0.41-0.393c-25.991,8.04-69.463,19.173-118.916,26.914L260.964,285.051z"/> <path style="fill:#90A4AE;" d="M429.571,226.713c-0.205-0.077-0.376-0.188-0.59-0.248 C429.187,226.525,429.366,226.644,429.571,226.713z"/> <path style="fill:#90A4AE;" d="M443.635,217.554h-6.656c0.76,4.827-2.751,7.63-7.997,8.911l0,0c0.205,0.06,0.384,0.171,0.59,0.248 c1.119,0.41,2.17,0.983,3.05,1.863l4.785,4.785c5.554-2.221,8.629-5.297,8.971-7.69 C446.711,223.449,446.625,220.031,443.635,217.554z"/> <path style="fill:#90A4AE;" d="M36.205,293.775c-0.88-0.154-1.752-0.299-2.58-0.496C34.453,293.476,35.333,293.621,36.205,293.775z "/> <path style="fill:#90A4AE;" d="M42.408,294.45c-1.589-0.06-3.119-0.197-4.597-0.393C39.289,294.253,40.819,294.39,42.408,294.45z"/> <path style="fill:#90A4AE;" d="M24.696,289.588c-0.316-0.205-0.624-0.419-0.923-0.632 C24.064,289.169,24.371,289.383,24.696,289.588z"/> <path style="fill:#90A4AE;" d="M19.903,285.197c-0.094-0.137-0.179-0.273-0.273-0.41C19.724,284.923,19.8,285.06,19.903,285.197z"/> <path style="fill:#90A4AE;" d="M18.356,282.599L18.356,282.599L18.356,282.599z"/> <path style="fill:#90A4AE;" d="M31.754,292.741c-0.641-0.188-1.273-0.376-1.88-0.598C30.472,292.365,31.113,292.553,31.754,292.741 z"/> <path style="fill:#90A4AE;" d="M22.013,287.538c-0.205-0.188-0.384-0.384-0.572-0.572C21.629,287.153,21.817,287.35,22.013,287.538 z"/> <path style="fill:#90A4AE;" d="M27.943,291.34c-0.461-0.205-0.923-0.419-1.367-0.649C27.02,290.921,27.481,291.126,27.943,291.34z"/> <path style="fill:#90A4AE;" d="M33.24,285.906c-5.818-0.222-10.825-1.41-14.884-3.307l0,0c0.35,0.76,0.786,1.487,1.265,2.187 c0.094,0.137,0.171,0.282,0.273,0.41c0.453,0.624,0.983,1.205,1.538,1.769c0.188,0.188,0.376,0.384,0.572,0.572 c0.538,0.496,1.128,0.965,1.752,1.418c0.299,0.214,0.607,0.427,0.923,0.632c0.598,0.384,1.222,0.76,1.888,1.102 c0.436,0.231,0.897,0.436,1.367,0.649c0.624,0.282,1.256,0.555,1.931,0.803c0.598,0.222,1.239,0.41,1.88,0.598 c0.615,0.188,1.222,0.376,1.871,0.538c0.829,0.197,1.709,0.35,2.58,0.496c0.538,0.094,1.051,0.214,1.606,0.282 c1.487,0.196,3.016,0.333,4.605,0.393h95.949l-13.329-8.544H33.24z"/> </g> <polygon style="fill:#29adc7;" points="242.081,106.481 156.641,191.922 205.129,191.922 247.849,106.481 "/> <polygon style="fill:#90A4AE;" points="247.849,106.481 205.129,191.922 216.193,191.922 258.913,106.481 "/> <polygon style="fill:#29adc7;" points="156.727,285.906 343.584,405.522 366.44,405.522 224.438,285.906 "/> <polygon style="fill:#90A4AE;" points="235.503,285.906 224.438,285.906 366.44,405.522 377.504,405.522 "/> <path style="fill:#29adc7;" d="M433.228,195.852l18.37-55.194h-3.264l-33.894,54.28 C420.455,196.928,427.435,197.424,433.228,195.852z"/> <g> <path style="fill:#90A4AE;" d="M414.44,194.938l-2.333,3.734L414.44,194.938z"/> <path style="fill:#90A4AE;" d="M451.598,140.657l-18.37,55.194c-5.793,1.572-12.773,1.077-18.788-0.914l-2.333,3.734 c6.835,4.101,16.917,5.724,24.778,3.588l20.506-61.602H451.598z"/> </g> </g>
</svg>