<!DOCTYPE svg PUBLIC "-//W3C//DTD SVG 1.1//EN" "http://www.w3.org/Graphics/SVG/1.1/DTD/svg11.dtd">
<!-- Uploaded to: SVG Repo, www.svgrepo.com, Transformed by: SVG Repo Mixer Tools -->
<svg fill="#cec936" height="800px" width="800px" version="1.1" id="Layer_1" xmlns="http://www.w3.org/2000/svg" xmlns:xlink="http://www.w3.org/1999/xlink" viewBox="0 0 512 512" xml:space="preserve" stroke="#cec936">
<g id="SVGRepo_bgCarrier" stroke-width="0"/>
<g id="SVGRepo_tracerCarrier" stroke-linecap="round" stroke-linejoin="round"/>
<g id="SVGRepo_iconCarrier"> <g> <g> <path d="M495.304,356.489h-39.326C490.101,328.921,512,286.801,512,239.619c0-77.204-58.544-140.937-133.565-149.277V55.967 h16.696c9.217,0,16.696-7.473,16.696-16.696c0-9.223-7.479-16.696-16.696-16.696h-33.391h-66.783h-33.391 c-9.217,0-16.696,7.473-16.696,16.696c0,9.223,7.479,16.696,16.696,16.696h16.696v33.391h-128C67.403,89.358,0,156.767,0,239.619 c0,47.182,21.899,89.301,56.022,116.87H16.696C7.479,356.489,0,363.962,0,373.185c0,9.223,7.479,16.696,16.696,16.696h58.38 c-5.484,9.69-8.652,20.854-8.652,32.761c0,36.826,29.956,66.783,66.783,66.783s66.783-29.956,66.783-66.783 c0-11.907-3.169-23.071-8.652-32.761h128.609c-5.484,9.69-8.652,20.854-8.652,32.761c0,36.826,29.956,66.783,66.783,66.783 s66.783-29.956,66.783-66.783c0-11.907-3.169-23.071-8.652-32.761h59.096c9.217,0,16.696-7.473,16.696-16.696 C512,363.962,504.521,356.489,495.304,356.489z M133.207,456.033c-18.413,0-33.391-14.978-33.391-33.391 c0-16.277,11.717-29.826,27.154-32.761h12.475c15.436,2.935,27.154,16.484,27.154,32.761 C166.598,441.055,151.62,456.033,133.207,456.033z M200.348,356.489h-33.391v-33.391h33.391V356.489z M200.348,289.706h-33.391 v-33.391h33.391V289.706z M200.348,222.924h-33.391v-33.391h33.391V222.924z M200.348,156.141h-33.391V122.75h33.391V156.141z M378.076,456.033c-18.413,0-33.391-14.978-33.391-33.391c0-16.277,11.717-29.826,27.154-32.761h12.475 c15.436,2.935,27.154,16.484,27.154,32.761C411.468,441.055,396.489,456.033,378.076,456.033z"/> </g> </g> </g>
</svg>